<svg viewBox="0 0 84 84" fill="none" xmlns="http://www.w3.org/2000/svg">
<path d="M34.876 68.9927C37.1133 66.6206 78.1811 31.5481 71.2319 61.1557C71.2319 61.1557 66.6104 75.3687 48.215 61.1557C48.215 61.1557 38.5935 52.6574 21.8308 50.6071" stroke="black" stroke-width="3" stroke-miterlimit="10" stroke-linecap="square" stroke-linejoin="round"/>
<path d="M21.8307 50.6071C21.8307 50.6071 5.62728 47.6698 16.2177 64.0859C16.2177 64.0859 22.8222 78.1159 45.3674 50.6071C45.3674 50.6071 65.7515 29.2252 45.3278 22.4772C45.3278 22.4772 31.4634 18.7854 29.1301 34.784C29.1301 34.784 25.7685 60.158 43.8081 36.8523" stroke="black" stroke-width="3" stroke-miterlimit="10" stroke-linecap="square" stroke-linejoin="round"/>
<path d="M41.8506 6.87171C45.3025 6.95335 48.4833 10.494 47.1839 14.4904C45.8675 18.5438 44.7941 22.109 41.8506 22.109C38.907 22.109 36.52 20.0511 36.52 15.8463C36.52 11.6415 38.9099 6.80222 41.8506 6.87171Z" stroke="black" stroke-width="3" stroke-miterlimit="10" stroke-linecap="square" stroke-linejoin="round"/>
<path d="M42 2.00002C64.0763 2.00002 82 19.9235 82 42C82 64.0765 64.0763 82 42 82C19.9237 82 2 64.0765 2 42C2 19.9235 19.9237 2.00002 42 2.00002Z" stroke="black" stroke-width="3" stroke-miterlimit="10" stroke-linecap="square" stroke-linejoin="round"/>
</svg>
