<?xml version="1.0" encoding="UTF-8"?>
<!-- Created with Inkscape (http://www.inkscape.org/) -->
<svg width="76.498mm" height="76.5mm" version="1.1" viewBox="0 0 76.498 76.5" xmlns="http://www.w3.org/2000/svg">
 <g transform="translate(-64.394 -92.906)">
  <path d="m135.03 125.97c-0.84525 1.5385-1.034 1.0411 3.0342 4.7175 0.16087 0.14523 0.36936 0.22591 0.58667 0.22591h1.481c-0.79939-0.90547-4.0647-4.0016-5.1019-4.9434zm1.567-3.67c-0.2353 0.0731-0.47096 0.14101-0.70944 0.20267-0.17392 0.0449-0.32067 0.16098-0.40746 0.31786-2.6987 4.8679-3.4981 7.1902-7.6912 7.479l0.13758 0.57859c4.348 0.26007 4.5896-1.2366 8.6706-8.5781zm-11.92-3.5493 0.17039 0.56977c3.7758-1.8463 5.6293-0.23488 10.4 2.6315 0.15381 0.0923 0.33902 0.11955 0.51153 0.0717 0.23742-0.0658 0.4759-0.1252 0.71649-0.17939-7.2051-4.3176-8.1629-5.4928-11.799-3.0935zm10.553-6.1333-1.2827 0.74048c-0.18767 0.10841-0.32843 0.28275-0.39511 0.48895-1.6852 5.218-1.7702 4.6929-0.26917 5.6027 0.42722-1.3342 1.7078-5.6484 1.947-6.8321zm-7.1314-2.1477c0.0374 1.7549-0.375 1.4186 4.9865 2.5682 0.21202 0.0454 0.43322 0.0107 0.62089-0.0976l1.2824-0.74052c-1.1444-0.38456-5.521-1.433-6.8898-1.7301zm-0.27411 5.032c0.48472 0.0728 0.82374 0.10735 1.0474 0.15406 0.0614 0.0128 0.12524 3e-3 0.17956-0.0281 0.13406-0.0779 0.51294-0.29609 1.6055-0.92699-3.1768-0.66125-2.5301-0.62936-2.8324 0.80098zm3.0738-0.38337c-1.0929 0.63091-1.4714 0.84992-1.6058 0.92707-0.0543 0.0313-0.0942 0.0818-0.11395 0.14139-0.0713 0.21728-0.21096 0.52818-0.39017 0.98425 1.39 0.45322 1.094 1.0293 2.11-2.0527zm1.9487-1.6819c-0.0215-9e-3 -0.0437-0.0168-0.067-0.0223l-4.6104-1.0681-0.0512 1.5086c0.0318 0.0171 1.8546 0.32332 2.6829 0.46295 0.26035 0.0439 0.52705-4e-3 0.75565-0.13628zm-1.0492 1.1624c-0.22825 0.1319-0.40358 0.33891-0.49565 0.58614-0.29316 0.78719-0.93945 2.519-0.94051 2.5548l1.3321 0.71007 1.3801-4.5267c7e-3 -0.023 0.0113-0.0461 0.0141-0.0691zm-5.0708 2.6493c2.0436-0.16651 1.4721 0.14905 2.0888-1.206-1.482-0.14334-0.92287-0.48073-2.0888 1.206zm0.89394-10.74c-0.16722 0.18084-0.33796 0.35783-0.51364 0.53041-0.12771 0.12562-0.1965 0.29954-0.19368 0.47879 0.0967 5.5652 0.5655 7.9761-2.9211 10.323l0.40823 0.43243c3.8958-1.9488 3.3568-3.3659 3.2202-11.764zm-12.098 2.8864 0.4324 0.40823c2.3466-3.4868 4.7574-3.0179 10.323-2.9212 0.17921 3e-3 0.35313-0.0658 0.47871-0.19374 0.17251-0.17554 0.34961-0.34632 0.53058-0.51333-8.3984-0.13666-9.8154-0.67567-11.764 3.2201zm6.0722-10.588-0.74052 1.2824c-0.1083 0.18764-0.14301 0.40901-0.0976 0.62086 1.1497 5.3616 0.8133 4.9493 2.5683 4.9867-0.29715-1.3691-1.3456-5.7454-1.7301-6.89zm-7.2498 1.7054c0.90981 1.5011 0.38463 1.4159 5.6027-0.26921 0.2062-0.0666 0.38054-0.20725 0.48891-0.3949l0.74052-1.2829c-1.1837 0.23996-5.4979 1.5198-6.8321 1.947zm4.7489 2.626c-0.63091 1.0927-0.84914 1.4716-0.92703 1.6056-0.0315 0.0544-0.0408 0.11808-0.0279 0.1795 0.0466 0.22387 0.0811 0.56296 0.15398 1.0475 1.4303-0.3025 1.4622 0.34424 0.80099-2.8327zm0.8467-2.431c-0.0231 3e-3 -0.0461 7e-3 -0.0692 0.0142l-4.5267 1.3802 0.71007 1.332c0.0358-1e-3 1.7677-0.64735 2.5548-0.94054 0.24723-0.0921 0.45424-0.26734 0.58614-0.49579zm-0.32727 1.5312c-0.13187 0.22853-0.18013 0.49541-0.13625 0.75558 0.13963 0.82826 0.44588 2.6513 0.46295 2.6828l1.5086-0.0511-1.0681-4.6104c-5e-3 -0.0234-0.0133-0.0456-0.0223-0.0669zm-3.0669 4.83c1.6867-1.1662 1.3493-0.60703 1.206-2.0889-1.355 0.61683-1.0394 0.045-1.206 2.0889zm0.0771-2.0613c0.45607-0.17924 0.76697-0.31887 0.98425-0.39038 0.0596-0.0197 0.11013-0.0596 0.14139-0.11402 0.0771-0.13441 0.29616-0.51287 0.92706-1.6056-3.082 1.0158-2.5059 0.72002-2.0527 2.11zm-4.6732-7.6875c-0.0542 0.24077-0.1136 0.47911-0.17932 0.71667-0.048 0.17233-0.0207 0.3575 0.0716 0.51131 2.8664 4.7712 4.4778 6.6246 2.6315 10.4l0.56977 0.17032c2.3993-3.6357 1.224-4.5933-3.0935-11.799zm-0.59041 1.2924c-3.3011 1.2373-2.8312 5.7984-1.6668 6.2202 1.2192 0.21678 3.9068-3.4983 1.6668-6.2202zm-8.4435 7.2566 0.57859 0.13737c0.28882-4.1929 2.6111-4.9923 7.479-7.6911 0.15688-0.087 0.27298-0.23354 0.31782-0.40746 0.0616-0.23837 0.12957-0.47431 0.2027-0.70943-7.3416 4.0806-8.8382 4.3224-8.5781 8.6706zm-0.0353-12.206v1.4808c0 0.21742 0.0807 0.42587 0.22595 0.58692 3.6764 4.0683 3.179 3.8795 4.7175 3.0342-0.94188-1.0371-4.038-4.3024-4.9435-5.102zm2.0021 6.7772 1.2809-0.79847-3.2301-3.4585c-0.0164-0.0176-0.0342-0.0329-0.0528-0.0474v1.4897c0 0.26412 0.0917 0.51936 0.25979 0.72309 0.53509 0.64717 1.7118 2.0728 1.7423 2.0915zm-2.0021-1.7751c0 1.2615 3.5e-4 1.6987 1e-4 1.8537-1e-4 0.0627 0.0237 0.12263 0.0654 0.16941 0.15237 0.1705 0.35183 0.44693 0.65716 0.83023 1.0875-0.97727 1.4385-0.43307-0.7227-2.8534zm-0.24109 4.6771c0.87764-1.8534 0.86508-1.2004 0-2.4121-0.86505 1.2117-0.87761 0.55876 0 2.4121zm-0.96379-1.8237c0.30536-0.3833 0.50482-0.65973 0.65715-0.83023 0.0418-0.0468 0.0655-0.10668 0.0655-0.16941-3.5e-4 -0.15501 7e-5 -0.59224 7e-5 -1.8537-2.1612 2.4203-1.8102 1.8761-0.7227 2.8534zm0.7227-5.3826c-0.0186 0.0145-0.0364 0.0298-0.0528 0.0474l-3.2301 3.4585 1.2809 0.79847c0.0305-0.0188 1.2072-1.4444 1.7423-2.0915 0.16803-0.20373 0.25975-0.45897 0.25975-0.72309zm0-2.4729c-0.90548 0.7996-4.0016 4.0649-4.9434 5.102 1.5385 0.84525 1.0411 1.034 4.7175-3.0342 0.14528-0.16105 0.22596-0.3695 0.22596-0.58692zm-8.6134 3.535c0.0731 0.23512 0.14108 0.47106 0.20267 0.70943 0.04487 0.17392 0.16097 0.32046 0.31782 0.40746 4.8679 2.6987 7.1902 3.4982 7.479 7.6911l0.57855-0.13737c0.2601-4.3482-1.2365-4.59-8.5781-8.6706zm1.8013 7.6342c1.1644-0.42185 1.6343-4.983-1.6668-6.2202-2.24 2.722 0.44757 6.437 1.6668 6.2202zm-2.0778-6.796c-0.06572-0.23756-0.12516-0.4759-0.17935-0.71667-4.3175 7.2052-5.4928 8.1629-3.0935 11.799l0.56977-0.17032c-1.8463-3.7756-0.23488-5.6291 2.6314-10.4 0.09229-0.15381 0.11959-0.33898 0.07161-0.51131zm-9.4061 0.52902 0.74048 1.2829c0.10837 0.18765 0.28272 0.3283 0.48895 0.3949 5.218 1.6852 4.6929 1.7704 5.6027 0.26921-1.3342-0.42718-5.6485-1.7071-6.8321-1.947zm-0.41762 0.24158c-0.38456 1.1446-1.433 5.5209-1.7301 6.89 1.7549-0.0374 1.4185 0.37486 2.5682-4.9867 0.04544-0.21185 0.01073-0.43322-0.09758-0.62086zm3.8423 6.1727c-0.14333 1.4819-0.48073 0.92273 1.206 2.0889-0.16662-2.0439 0.14905-1.4721-1.206-2.0889zm-0.92386-2.0824c0.63091 1.0928 0.84991 1.4712 0.92706 1.6056 0.03122 0.0544 0.08181 0.0944 0.14139 0.11402 0.21724 0.0715 0.52814 0.21114 0.98425 0.39038 0.45318-1.39 1.0293-1.0942-2.0527-2.11zm-0.51946-0.89972c0.13187 0.22845 0.33891 0.40368 0.5861 0.49579 0.78722 0.29319 2.519 0.93948 2.5549 0.94054l0.71007-1.332-4.5267-1.3802c-0.02304-7e-3 -0.04607-0.0113-0.06918-0.0142zm0.90283 3.9735c0.07288-0.48457 0.10735-0.82366 0.15395-1.0475 0.01288-0.0614 0.0036-0.12514-0.02794-0.1795-0.07786-0.13405-0.29609-0.51294-0.92699-1.6056-0.66125 3.1769-0.62939 2.5302 0.80098 2.8327zm-1.1842-2.9769c0.04389-0.26017-0.0043-0.52705-0.13624-0.75558l-0.74486-1.29c-9e-3 0.0213-0.01683 0.0435-0.02222 0.0669l-1.0681 4.6104 1.5085 0.0511c0.01707-0.0315 0.32329-1.8546 0.46292-2.6828zm-7.8097 3.1805c0.18094 0.16701 0.35786 0.33779 0.53044 0.51333 0.12559 0.12795 0.29954 0.19681 0.47879 0.19374 5.5652-0.0967 7.9761-0.56553 10.323 2.9212l0.43244-0.40823c-1.949-3.8958-3.3659-3.3568-11.764-3.2201zm-0.33376 0.33369c-0.13656 8.3983-0.6756 9.8154 3.2202 11.764l0.40827-0.43243c-3.4868-2.3465-3.018-4.7574-2.9212-10.323 3e-3 -0.17925-0.06586-0.35317-0.19375-0.47879-0.17554-0.17258-0.34625-0.34957-0.51343-0.53041zm-1.1949 9.5344c0.6168 1.355 0.04501 1.0395 2.0889 1.206-1.1661-1.6867-0.60699-1.3493-2.0889-1.206zm-1.8413-1.3415c1.0927 0.6309 1.4716 0.84913 1.6056 0.92699 0.05436 0.0315 0.11804 0.0409 0.17949 0.0281 0.22387-0.0467 0.56286-0.0812 1.0475-0.15406-0.30254-1.4303 0.34424-1.4622-2.8327-0.80098zm-4.3317-2.5008 1.2827 0.74052c0.18761 0.1083 0.40898 0.14302 0.62085 0.0976 5.3616-1.1496 4.9493-0.8133 4.9867-2.5682-1.3691 0.29714-5.7454 1.3456-6.8902 1.7301zm1.7056 7.2498c1.5011-0.90985 1.4159-0.38467-0.26917-5.6027-0.0666-0.2062-0.20729-0.38054-0.39497-0.48895l-1.2826-0.74048c0.23932 1.1837 1.5196 5.4979 1.9467 6.8321zm2.3848-4.3313c1.0158 3.082 0.72006 2.5059 2.1101 2.0527-0.17925-0.45607-0.31895-0.76697-0.39038-0.98425-0.01965-0.0596-0.05959-0.11007-0.11402-0.14139-0.13441-0.0772-0.51287-0.29616-1.6057-0.92707zm-2.1898-1.2642c0.0028 0.023 0.0072 0.0461 0.01418 0.0691l1.3802 4.5267 1.332-0.71007c-1e-3 -0.0358-0.64731-1.7677-0.9405-2.5548-0.09211-0.24723-0.26734-0.45424-0.49579-0.58614zm1.5312 0.32717c0.22846 0.1319 0.49537 0.18016 0.75554 0.13628 0.82829-0.13963 2.6513-0.44588 2.6828-0.46295l-0.05105-1.5086-4.6104 1.0681c-0.02342 6e-3 -0.04558 0.0133-0.06699 0.0223zm-4.9185 7.663c0.24014 0.0542 0.47879 0.11359 0.71603 0.17939 0.17279 0.0479 0.35782 0.0206 0.51156-0.0717 4.7712-2.8664 6.6246-4.4778 10.4-2.6315l0.17028-0.56977c-3.6356-2.3993-4.5932-1.2241-11.798 3.0935zm8.5486 9.0339 0.13744-0.57859c-4.193-0.28882-4.9924-2.6111-7.6913-7.479-0.08696-0.15688-0.23354-0.27298-0.40721-0.31786-0.23827-0.0617-0.47463-0.12954-0.70975-0.20267 4.0809 7.3416 4.3226 8.8382 8.6708 8.5781zm-12.205 0.0353h1.481c0.21668 0 0.4257-0.0807 0.58646-0.22591 4.0684-3.6764 3.8796-3.179 3.0345-4.7175-1.0371 0.94188-4.3029 4.038-5.102 4.9434zm5.102 5.4257c0.84511-1.5385 1.0338-1.0411-3.0345-4.7175-0.16076-0.14524-0.36978-0.22592-0.58646-0.22592h-1.481c0.79915 0.90547 4.065 4.0016 5.102 4.9434zm2.165-5.1845c1.2117 0.86504 0.55876 0.8776 2.4121 0-1.8533-0.87764-1.2004-0.86508-2.4121 0zm-2.2653-0.24113c1.2618 0 1.6991-4.5e-4 1.8541-7e-5 0.06272 1.8e-4 0.12256-0.0237 0.1694-0.0654 0.17046-0.15236 0.4469-0.35182 0.83023-0.65719-0.97726-1.0875-0.43307-1.4385-2.8537 0.7227zm-1.0389 0c0.26377 0 0.51904-0.0917 0.72245-0.25975 0.64742-0.53509 2.0731-1.7117 2.0919-1.7423l-0.79848-1.2809-3.4586 3.2301c-0.01757 0.0164-0.03295 0.0342-0.04688 0.0528zm3.8926 1.2049c-0.38333-0.30537-0.65976-0.50483-0.83023-0.65716-0.04685-0.0418-0.10668-0.0655-0.1694-0.0655-0.15501 3.9e-4 -0.59228-7e-5 -1.8541-7e-5 2.4207 2.1612 1.8765 1.8102 2.8537 0.7227zm-3.1702-0.46295c-0.20341-0.16807-0.45868-0.25975-0.72245-0.25975h-1.4896c0.01394 0.0186 0.02932 0.0364 0.04688 0.0528l3.4586 3.2301 0.79848-1.2809c-0.01877-0.0306-1.4444-1.2072-2.0919-1.7423zm-1.1505 8.3537c0.23513-0.0731 0.47149-0.14101 0.70975-0.20267 0.17367-0.0449 0.32025-0.16098 0.40721-0.31786 2.6989-4.8679 3.4983-7.1901 7.6913-7.479l-0.13744-0.57856c-4.3482-0.2601-4.5899 1.2365-8.6708 8.5781zm11.92 3.5494-0.17028-0.56973c-3.7756 1.8461-5.6291 0.23495-10.4-2.6316-0.15374-0.0923-0.33877-0.11955-0.51156-0.0717-0.23724 0.0658-0.4759 0.12521-0.71603 0.17943 7.2049 4.3177 8.1626 5.4928 11.798 3.0935zm-10.553 6.1334 1.2826-0.74084c0.18768-0.1083 0.32837-0.28257 0.39497-0.48895 1.6851-5.2179 1.7703-4.6926 0.26917-5.6025-0.42718 1.3342-1.7074 5.6483-1.9467 6.8322zm7.1313 2.1477c-0.03736-1.7551 0.37486-1.4185-4.9867-2.5682-0.21188-0.0455-0.43325-0.0109-0.62085 0.0974l-1.2827 0.74048c1.1448 0.38453 5.5211 1.433 6.8902 1.7304zm0.27411-5.032c-0.48468-0.073-0.82366-0.10724-1.0475-0.15416-0.06145-0.0127-0.12513-4e-3 -0.17949 0.0282-0.13406 0.0776-0.51294 0.29598-1.6056 0.92675 3.1769 0.66146 2.5301 0.62935 2.8327-0.80081zm-3.0739 0.38347c1.0928-0.63112 1.4713-0.85019 1.6057-0.9271 0.05443-0.0314 0.09437-0.0819 0.11402-0.14146 0.07144-0.21731 0.21114-0.52811 0.39038-0.98425-1.39-0.45332-1.0942-1.0294-2.1101 2.0528zm-1.9487 1.6817c0.02141 9e-3 0.04357 0.0169 0.06699 0.0222l4.6104 1.0682 0.05105-1.5085c-0.03157-0.0173-1.8546-0.3235-2.6828-0.46284-0.26017-0.0441-0.52708 4e-3 -0.75554 0.13617zm1.049-1.1624c0.22846-0.13194 0.40368-0.33902 0.49579-0.58596 0.29319-0.7874 0.93948-2.5192 0.9405-2.5552l-1.332-0.70979-1.3802 4.5265c-7e-3 0.0233-0.01136 0.0462-0.01418 0.0691zm5.071-2.6494c-2.0439 0.16651-1.4721-0.14887-2.0889 1.2062 1.4819 0.14323 0.92273 0.48048 2.0889-1.2062zm-0.89397 10.74c0.16718-0.18062 0.33789-0.35771 0.51343-0.53022 0.12788-0.12559 0.19678-0.29951 0.19375-0.47872-0.09673-5.5654-0.56554-7.9763 2.9212-10.323l-0.40827-0.43251c-3.8958 1.9488-3.3567 3.3658-3.2202 11.764zm12.098-2.8864-0.43244-0.40816c-2.3465 3.4869-4.7575 3.018-10.323 2.9214-0.17925-3e-3 -0.3532 0.066-0.47879 0.19368-0.17258 0.17568-0.3495 0.34643-0.53044 0.51329 8.3984 0.13688 9.8153 0.67592 11.764-3.2202zm-6.0722 10.588 0.74052-1.2827c0.1083-0.18768 0.14302-0.40923 0.09758-0.62089-1.1497-5.3615-0.81329-4.9495-2.5682-4.9869 0.29711 1.3691 1.3456 5.7453 1.7301 6.8905zm7.2498-1.7057c-0.90985-1.5014-0.38467-1.416-5.6027 0.26917-0.20623 0.0663-0.38058 0.20708-0.48895 0.39475l-0.74048 1.2827c1.1837-0.23918 5.4979-1.5194 6.8321-1.9466zm-4.7489-2.6261c0.63091-1.0929 0.84914-1.4714 0.92699-1.6058 0.0315-0.054 0.04082-0.11782 0.02794-0.17921-0.0466-0.22401-0.08107-0.56303-0.15395-1.0478-1.4304 0.30269-1.4622-0.34431-0.80098 2.8328zm-0.8467 2.431c0.02311-3e-3 0.04614-7e-3 0.06918-0.0141l4.5267-1.3804-0.71007-1.3321c-0.03584 1e-3 -1.7677 0.64735-2.5549 0.94051-0.24719 0.0924-0.45424 0.2674-0.5861 0.496zm0.32724-1.5314c0.1319-0.22825 0.18013-0.4953 0.13624-0.7553-0.13963-0.82832-0.44584-2.6515-0.46292-2.6829l-1.5085 0.0512 1.0681 4.6101c0.0054 0.0236 0.01323 0.0459 0.02222 0.067zm3.0669-4.8299c-1.6867 1.1663-1.3493 0.60713-1.206 2.0892 1.3551-0.61701 1.0394-0.0452 1.206-2.0892zm-0.07715 2.0613c-0.45611 0.17921-0.76701 0.31891-0.98425 0.39053-0.05958 0.0198-0.11017 0.0596-0.14139 0.11394-0.07715 0.13441-0.29616 0.51294-0.92706 1.6058 3.082-1.016 2.5059-0.72037 2.0527-2.1103zm4.6732 7.6874c0.05419-0.24024 0.11363-0.47907 0.17935-0.71614 0.04798-0.17286 0.02067-0.35771-0.07161-0.51152-2.8663-4.7713-4.4778-6.6248-2.6314-10.4l-0.56977-0.17039c-2.3993 3.6357-1.2241 4.5935 3.0935 11.798zm0.59041-1.2919c3.3011-1.2375 2.8311-5.7986 1.6668-6.2205-1.2192-0.21661-3.9068 3.4981-1.6668 6.2205zm8.4435-7.257-0.57856-0.13723c-0.28885 4.1928-2.6111 4.9925-7.479 7.6913-0.15684 0.0868-0.27294 0.23354-0.31782 0.40711-0.0616 0.23812-0.12958 0.47448-0.20267 0.70978 7.3416-4.0809 8.8382-4.3226 8.5781-8.6709zm0.0353 12.206v-1.4813c0-0.2166-0.0807-0.42545-0.22596-0.58631-3.6764-4.0682-3.179-3.8795-4.7175-3.0346 0.94188 1.0372 4.038 4.3028 4.9434 5.1022zm-2.002-6.7772-1.2809 0.79834 3.2301 3.4586c0.0164 0.0176 0.0342 0.0332 0.0528 0.0469v-1.4894c0-0.26388-0.0917-0.51929-0.25975-0.72249-0.53509-0.6477-1.7118-2.0733-1.7423-2.092zm2.002 1.7755c0-1.2619-3.5e-4 -1.6993-7e-5 -1.8542 7e-5 -0.0628-0.0237-0.12241-0.0655-0.16933-0.15233-0.17074-0.35179-0.44697-0.65716-0.83044-1.0875 0.9772-1.4385 0.43321 0.7227 2.854zm0.24109-4.6775c-0.87761 1.8531-0.86505 1.2002 0 2.4119 0.86508-1.2118 0.87764-0.5588 0-2.4119zm0.96379 1.8235c-0.30533 0.38347-0.50479 0.6597-0.65716 0.83044-0.0418 0.0469-0.0655 0.10654-0.0654 0.16933 3.5e-4 0.15487-1e-4 0.59232-1e-4 1.8542 2.1612-2.4208 1.8102-1.8768 0.7227-2.854zm-0.72271 5.3823c0.0186-0.0138 0.0364-0.0293 0.0528-0.0469l3.2301-3.4586-1.2809-0.79834c-0.0305 0.0187-1.2072 1.4443-1.7423 2.092-0.16806 0.2032-0.25979 0.45862-0.25979 0.72249zm0 2.4733c0.90551-0.7994 4.0016-4.0651 4.9435-5.1022-1.5385-0.8449-1.0411-1.0336-4.7175 3.0346-0.14527 0.16086-0.22595 0.36971-0.22595 0.58631zm8.6135-3.5348c-0.0731-0.2353-0.14108-0.47166-0.20271-0.70978-0.0448-0.17357-0.16094-0.32033-0.31782-0.40711-4.8679-2.6988-7.1902-3.4985-7.479-7.6913l-0.57859 0.13723c-0.26007 4.3483 1.2366 4.59 8.5781 8.6709zm-1.8014-7.6345c-1.1644 0.42192-1.6343 4.983 1.6668 6.2205 2.24-2.7224-0.44753-6.4371-1.6668-6.2205zm2.0779 6.7963c0.0657 0.23707 0.12513 0.4759 0.17931 0.71614 4.3175-7.2048 5.4928-8.1626 3.0935-11.798l-0.56977 0.17039c1.8463 3.7754 0.23488 5.6289-2.6315 10.4-0.0923 0.15381-0.11955 0.33866-0.0716 0.51152zm9.4061-0.52952-0.74052-1.2827c-0.10837-0.18768-0.28271-0.32843-0.48891-0.39476-5.2181-1.6852-4.6929-1.7706-5.6027-0.26917 1.3342 0.42722 5.6484 1.7074 6.8321 1.9466zm0.41762-0.24094c0.38456-1.1451 1.433-5.5213 1.7301-6.8905-1.755 0.0374-1.4185-0.37465-2.5683 4.9869-0.0454 0.21166-0.0107 0.43321 0.0976 0.62089zm-3.8423-6.1729c0.14334-1.482 0.48073-0.92287-1.206-2.0892 0.16661 2.044-0.14905 1.4721 1.206 2.0892zm0.92386 2.0824c-0.63091-1.0929-0.84995-1.4714-0.92707-1.6058-0.0313-0.0543-0.0818-0.0942-0.14139-0.11394-0.21728-0.0716-0.52818-0.21132-0.98425-0.39053-0.45321 1.39-1.0293 1.0943 2.0527 2.1103zm0.51946 0.89958c-0.1319-0.2286-0.33891-0.40358-0.58614-0.496-0.78719-0.29316-2.519-0.93945-2.5548-0.94051l-0.71007 1.3321 4.5267 1.3804c0.023 7e-3 0.0461 0.0113 0.0692 0.0141zm-0.90283-3.9737c-0.0729 0.48472-0.10735 0.82374-0.15398 1.0478-0.0129 0.0614-4e-3 0.12524 0.0279 0.17921 0.0779 0.13441 0.29612 0.51294 0.92703 1.6058 0.66124-3.1771 0.62935-2.5301-0.80099-2.8328zm1.1842 2.9771c-0.0439 0.26 4e-3 0.52705 0.13625 0.7553l0.74485 1.2901c9e-3 -0.0212 0.0168-0.0434 0.0223-0.067l1.0681-4.6101-1.5086-0.0512c-0.0171 0.0314-0.32332 1.8546-0.46295 2.6829zm7.8098-3.1806c-0.18097-0.16686-0.35807-0.33761-0.53058-0.51329-0.12558-0.12771-0.2995-0.19685-0.47871-0.19368-5.5652 0.0967-7.9761 0.56551-10.323-2.9214l-0.4324 0.40816c1.9489 3.8961 3.3659 3.357 11.764 3.2202zm0.33373-0.33373c0.13653-8.3982 0.67557-9.8153-3.2202-11.764l-0.40823 0.43251c3.4866 2.3463 3.0178 4.7572 2.9211 10.323-3e-3 0.17921 0.066 0.35313 0.19368 0.47872 0.17568 0.1725 0.34642 0.3496 0.51364 0.53022zm1.1949-9.5342c-0.61666-1.355-0.0452-1.0396-2.0888-1.2062 1.1659 1.6866 0.60678 1.3494 2.0888 1.2062zm1.8411 1.3413c-1.0926-0.63077-1.4714-0.84913-1.6055-0.92675-0.0543-0.0317-0.11818-0.0409-0.17956-0.0282-0.22366 0.0469-0.56268 0.0811-1.0474 0.15417 0.30233 1.4302-0.34431 1.4623 2.8324 0.8008zm4.3314 2.5008-1.2824-0.74048c-0.18767-0.1083-0.40887-0.14287-0.62089-0.0974-5.3615 1.1497-4.9491 0.81315-4.9865 2.5682 1.3688-0.29739 5.7453-1.3458 6.8898-1.7304zm-1.7053-7.2496c-1.5011 0.90981-1.416 0.38453 0.26917 5.6025 0.0667 0.20638 0.20744 0.38065 0.39511 0.48895l1.2827 0.74084c-0.23918-1.1839-1.5198-5.498-1.947-6.8322zm-2.3848 4.3314c-1.016-3.0822-0.72002-2.5061-2.11-2.0528 0.17921 0.45614 0.31891 0.76694 0.39017 0.98425 0.0198 0.0596 0.0596 0.11007 0.11395 0.14147 0.13441 0.0769 0.51294 0.29598 1.6058 0.92709zm2.1897 1.264c-3e-3 -0.0229-7e-3 -0.0459-0.0141-0.0691l-1.3801-4.5265-1.3321 0.70979c1e-3 0.036 0.64735 1.7678 0.94051 2.5552 0.0921 0.24694 0.2674 0.45402 0.49565 0.58596zm-1.5311-0.32703c-0.2286-0.13194-0.4953-0.18027-0.75565-0.13617-0.82832 0.13935-2.6511 0.44556-2.6829 0.46284l0.0512 1.5085 4.6104-1.0682c0.0233-5e-3 0.0455-0.0131 0.067-0.0222zm4.9188-7.6631c-0.24059-0.0542-0.47907-0.11363-0.71649-0.17942-0.17251-0.0479-0.35772-0.0206-0.51153 0.0716-4.771 2.8665-6.6245 4.4777-10.4 2.6316l-0.17039 0.56973c3.6357 2.3992 4.5935 1.2241 11.799-3.0935zm-11.269-4.7893c2.9524-0.0182 2.5947-1.5656 5.3114-2.3576-3.9638-1.7464-2.6515 0.76094-5.3114 2.3576zm0-9.0422c2.66 1.5967 1.3476 4.1041 5.3114 2.3577-2.7167-0.79205-2.359-2.3394-5.3114-2.3577zm2.038-0.107c4.1737 2.8165 3.6527 2.5768 5.2165 0.74669-2.0461-0.13342-3.5373-1.6813-5.2165-0.74669zm4.4171-1.1613c-2.6952 0.15614-2.3498-1.1795-3.4244 0.40795 4.6129 0.7306 3.5042 2.3964 5.8685-1.1772-0.74295 0.55054-1.4492 0.71165-2.444 0.76923zm-2.6991-1.2638c0.42192 1.1643 4.983 1.6344 6.2205-1.6668-2.722-2.24-6.4371 0.44757-6.2205 1.6668zm-1.464-1.0849c1.7244 0.83739 0.75741-0.14647 3.1697-1.3589 0.89005-0.44757 1.5826-0.66121 2.5012-0.55587-3.8343-1.9126-2.0412-1.0244-5.6709 1.9148zm-1.2365-0.15614c1.9216-0.0302 2.4395-2.1164 4.1444-3.2549-2.2694-0.80288-1.9382-1.2712-4.1444 3.2549zm-1.8182 0.92636c2.5474-1.4919 1.464-2.6533 3.4212-4.6976-4.3063 0.46955-1.9163 1.9848-3.4212 4.6976zm-1.5861 1.9506c2.0557 0.39327 3.7557 0.92699 4.9788-0.49386 0.23918-0.27774 0.51294-0.63905 0.43039-0.9555-0.0868-0.31534-0.50447-0.49145-0.85055-0.61238-1.7695-0.61884-2.975 0.69338-4.5586 2.0617zm0.31531-6.159c0.5805 1.1106 0.50038 2.5961-0.7143 4.1655-0.24941 0.32212-0.58801 0.57333-0.87944 0.85122-0.0532 0.0508-0.1028 0.101-0.16344 0.16146l0.48129 0.83365c2.3878-0.83365 3.4255-4.2119 2.3558-6.6352zm-6.0854-2.3186 0.4813 0.83362c0.0827-0.0222 0.15092-0.0401 0.22161-0.0608 0.38626-0.11345 0.77319-0.28109 1.1769-0.33595 1.9664-0.26727 3.293 0.40608 3.9645 1.4641l1.0799-0.6235c-1.5639-2.1381-5.0084-2.9286-6.9243-1.2774zm2.835-1.3038c3.1019 0.0529 3.2191 2.8804 5.7789-0.61401-2.7489 0.67257-3.2129-0.84638-5.7789 0.61401zm1.7115-1.1116c5.0227 0.35228 4.4516 0.40527 4.8912-1.9617-1.8387 0.90752-3.9043 0.3127-4.8912 1.9617zm3.2447-3.2144c-2.2563 1.4829-2.6247 0.15342-2.7617 2.0654 4.3601-1.6737 4.2328 0.32332 4.4935-3.9536-0.36795 0.84832-0.89923 1.341-1.7318 1.8882zm-2.9693 0.25512c0.94752 0.79735 5.1325-1.0762 4.554-4.5538-3.4778-0.5788-5.3513 3.6063-4.554 4.5538zm-1.8104-0.20761c1.912-0.13698 0.58254-0.50546 2.0654-2.7616 0.54719-0.83277 1.0399-1.3639 1.8882-1.7321-4.277 0.26081-2.28 0.13342-3.9537 4.4936zm-1.1489 0.48306c1.649-0.98689 1.0542-3.0524 1.9617-4.891-2.3669 0.43942-2.314-0.13184-1.9617 4.891zm-1.5099 4.1937c1.9768-0.68721 3.716-1.075 4.065-2.9172 0.0682-0.36012 0.12457-0.80991-0.10516-1.0426-0.2328-0.22973-0.68252-0.17335-1.0427-0.10516-1.8421 0.349-2.23 2.0882-2.9171 4.065zm-2.8064-5.4916c1.058 0.67155 1.7313 1.9981 1.4641 3.9646-0.0548 0.40361-0.22247 0.79061-0.33592 1.1769-0.0207 0.0707-0.0386 0.13892-0.0608 0.22161l0.83369 0.4813c1.6511-1.9159 0.86056-5.3604-1.2775-6.9242zm-6.4295 1.0348 0.83369 0.48129c0.0605-0.0606 0.11063-0.11024 0.16143-0.16348 0.27792-0.29139 0.52913-0.63002 0.85125-0.8794 1.5694-1.2147 3.0548-1.2948 4.1655-0.7143l0.62343-1.0799c-2.4234-1.0697-5.8016-0.032-6.6353 2.3558zm0.34668-5.9395c-1.4208 1.2233-0.88713 2.9234-0.49386 4.9789 1.3684-1.5835 2.6806-2.789 2.0617-4.5587-0.12104-0.34611-0.29707-0.7637-0.61238-0.85044-0.31638-0.0826-0.6778 0.1911-0.9555 0.43024zm-1.2831 0.59211c0.93458-1.6792-0.61327-3.1706-0.74669-5.2166-1.8301 1.564-2.0699 1.0428 0.74669 5.2166zm-0.107 2.038c-0.0183-2.9524-1.5656-2.5948-2.3577-5.3116-1.7464 3.964 0.76087 2.6518 2.3577 5.3116zm-4.28-1.0038c1.2521 0.0526 2.4984 0.86477 3.2503 2.7014 0.15431 0.37701 0.20253 0.79597 0.29747 1.1872 0.0175 0.0715 0.0361 0.13956 0.0581 0.22232h0.96266c0.47187-2.4848-1.9349-5.0725-4.5686-5.3578zm-0.24109 6.9596c0.70475-1.3953 1.0426-1.423 0.2365-2.6869-0.0605-0.0949-0.14841-0.14284-0.2365-0.14295-0.0881 1.1e-4 -0.176 0.048-0.2365 0.14295-0.80613 1.2638-0.46824 1.2915 0.2365 2.6869zm-1.8937-2.4335c-0.0107 0.0792 0.13165 0.15847 0.73187 0.54264 0.15776-0.35443 0.29118-0.73067 0.49879-1.0575 0.11963-0.18842 0.26635-0.31291 0.42192-0.37627v-1.3774c-0.59802 0.14263-1.3723 0.78617-1.6526 2.2685zm-1.4944-0.34294 1.0716 0.23665c0.18499-0.6149 0.2105-1.2596 1.106-2.1105 0.31305-0.29753 0.63179-0.46398 0.96932-0.50617v-1.3981c-1.7313 0.211-3.1495 2.2846-3.147 3.7781zm-1.4216-0.0722h0.9627c0.02205-0.0828 0.04064-0.15081 0.05814-0.22232 0.09493-0.39126 0.14316-0.81022 0.29743-1.1872 0.75188-1.8366 1.9982-2.6488 3.2503-2.7014v-1.2469c-2.6336 0.28532-5.0404 2.873-4.5685 5.3578zm0.28854-3.1071c1.5968-2.6599 4.1041-1.3476 2.3577-5.3116-0.79202 2.7169-2.3394 2.3593-2.3577 5.3116zm-0.10703-2.038c2.8166-4.1738 2.5768-3.6526 0.74669-5.2166-0.13342 2.046-1.6812 3.5374-0.74669 5.2166zm-0.78915 4.3868c0.39328-2.0555 0.92699-3.7556-0.49385-4.9789-0.27774-0.23914-0.63913-0.51286-0.9556-0.43024-0.31524 0.0867-0.49128 0.50433-0.61228 0.85044-0.61884 1.7697 0.69338 2.9752 2.0617 4.5587zm-6.1591-0.31531c1.1107-0.5805 2.5961-0.50038 4.1655 0.7143 0.32209 0.24938 0.57326 0.58801 0.85122 0.8794 0.0508 0.0532 0.10096 0.10284 0.16147 0.16348l0.83365-0.48129c-0.83365-2.3878-4.2119-3.4255-6.6353-2.3558zm-2.3186 6.0854 0.83365-0.4813c-0.02222-0.0827-0.04008-0.15092-0.06078-0.22161-0.11345-0.38626-0.28113-0.77326-0.33595-1.1769-0.26726-1.9665 0.40608-3.293 1.4641-3.9646l-0.6235-1.0798c-2.1381 1.5639-2.9286 5.0083-1.2775 6.9242zm-3.8225-4.4177c-0.36019-0.0682-0.80991-0.12457-1.0427 0.10516-0.22973 0.23273-0.17339 0.68252-0.10516 1.0426 0.34897 1.8421 2.0882 2.2299 4.065 2.9172-0.68714-1.9768-1.075-3.716-2.9171-4.065zm1.4072-0.12877c0.35228-5.0228 0.4052-4.4516-1.9617-4.891 0.90742 1.8386 0.31267 3.9041 1.9617 4.891zm-3.2144-3.2446c1.4829 2.2561 0.15339 2.6246 2.0654 2.7616-1.6737-4.3602 0.32332-4.2328-3.9537-4.4936 0.84832 0.36816 1.341 0.8993 1.8882 1.7321zm0.25509 2.9692c0.79735-0.94756-1.0762-5.1326-4.5538-4.5538-0.5788 3.4776 3.6063 5.3512 4.5538 4.5538zm-0.20757 1.8103c-0.13698-1.912-0.50546-0.58251-2.7616-2.0654-0.8328-0.54716-1.3639-1.0399-1.7321-1.8882 0.26088 4.277 0.13342 2.28 4.4936 3.9536zm0.48306 1.1489c-0.9869-1.649-3.0524-1.0541-4.8911-1.9617 0.43942 2.3669-0.1318 2.3139 4.8911 1.9617zm1.7115 1.1116c-2.566-1.4604-3.03 0.0586-5.7789-0.61401 2.5598 3.4944 2.6771 0.66693 5.7789 0.61401zm-3.0094 3.2047c0.67158-1.058 1.9981-1.7314 3.9646-1.4641 0.40376 0.0549 0.79065 0.2225 1.1769 0.33595 0.0707 0.0207 0.13889 0.0386 0.22158 0.0608l0.4813-0.83362c-1.9159-1.6511-5.3603-0.86063-6.9243 1.2774zm1.0348 6.4294 0.4813-0.83365c-0.06064-0.0605-0.11024-0.11063-0.16348-0.16146-0.29143-0.27789-0.63002-0.5291-0.8794-0.85122-1.2147-1.5694-1.2948-3.0548-0.71434-4.1655l-1.0799-0.62343c-1.0697 2.4234-0.03207 5.8016 2.3558 6.6352zm-2.5466-1.8033c-1.5052-2.7128 0.88498-4.2281-3.4212-4.6976 1.9569 2.0444 0.87355 3.2057 3.4212 4.6976zm-1.8184-0.92636c-2.2063-4.5261-1.8749-4.0578-4.1444-3.2549 1.7052 1.1385 2.2229 3.2248 4.1444 3.2549zm-4.4061-1.2028c2.4123 1.2124 1.4451 2.1963 3.1695 1.3589-3.6296-2.9392-1.8364-3.8274-5.6708-1.9148 0.9187-0.10534 1.611 0.1083 2.5013 0.55587zm1.7054 2.4438c0.21678-1.2192-3.4983-3.9068-6.2206-1.6668 1.2376 3.3011 5.7987 2.8311 6.2206 1.6668zm0.72538 1.6717c-1.0746-1.5875-0.72891-0.25181-3.4242-0.40795-0.9948-0.0576-1.7011-0.21869-2.4442-0.76923 2.3645 3.5736 1.2555 1.9078 5.8684 1.1772zm0.99286 0.75339c-1.6792-0.93458-3.1706 0.61327-5.2166 0.74669 1.5639 1.8301 1.0428 2.0698 5.2166-0.74669zm4.3868-0.78923c-1.5835-1.3684-2.789-2.6806-4.5587-2.0617-0.34608 0.12093-0.76369 0.29704-0.85034 0.61238-0.08262 0.31645 0.19103 0.67776 0.43018 0.9555 1.2233 1.4208 2.9234 0.88713 4.9789 0.49386zm-2.3488 0.89623c-2.9523 0.0183-2.5947 1.5656-5.3116 2.3577 3.964 1.7464 2.6517-0.76097 5.3116-2.3577zm0 9.0422c-2.6599-1.5967-1.3476-4.1041-5.3116-2.3576 2.7169 0.79202 2.3593 2.3394 5.3116 2.3576zm-2.038 0.10704c-4.1738-2.8166-3.6527-2.5768-5.2166-0.74673 2.046 0.13346 3.5374 1.6813 5.2166 0.74673zm-4.4171 1.1614c2.6953-0.15621 2.3496 1.1794 3.4242-0.40791-4.6129-0.73068-3.5039-2.3965-5.8684 1.1771 0.74302-0.55055 1.4494-0.71166 2.4442-0.76917zm2.6989 1.2637c-0.42185-1.1643-4.983-1.6344-6.2206 1.6668 2.7223 2.24 6.4373-0.44757 6.2206-1.6668zm1.464 1.085c-1.7243-0.83746-0.75717 0.1464-3.1695 1.3589-0.89027 0.44754-1.5826 0.66118-2.5013 0.55584 3.8344 1.9126 2.0412 1.0246 5.6708-1.9147zm1.2366 0.15607c-1.9215 0.0302-2.4392 2.1164-4.1444 3.2549 2.2695 0.80292 1.9381 1.2711 4.1444-3.2549zm1.8184-0.92636c-2.5477 1.492-1.4643 2.6533-3.4212 4.6977 4.3062-0.46955 1.9161-1.9849 3.4212-4.6977zm1.586-1.9506c-2.0555-0.39327-3.7556-0.92699-4.9789 0.49386-0.23915 0.27781-0.5128 0.63913-0.43025 0.9555 0.08671 0.31534 0.50433 0.49145 0.85041 0.61238 1.7698 0.61892 2.9752-0.69338 4.5587-2.0617zm-0.31535 6.1589c-0.5805-1.1106-0.50038-2.596 0.71434-4.1654 0.24938-0.32208 0.58798-0.57333 0.8794-0.85115 0.05324-0.0509 0.10284-0.10107 0.16348-0.16153l-0.4813-0.83365c-2.3879 0.83365-3.4255 4.2119-2.3558 6.6355zm6.0855 2.3185-0.4813-0.83326c-0.08269 0.0222-0.15088 0.0399-0.22158 0.0607-0.38629 0.11324-0.77318 0.28116-1.1769 0.33584-1.9664 0.26741-3.293-0.40604-3.9646-1.464l-1.0799 0.62335c1.5639 2.1382 5.0084 2.9288 6.9243 1.2774zm-2.835 1.3039c-3.1019-0.0529-3.2191-2.8804-5.7789 0.61418 2.749-0.67274 3.2129 0.84632 5.7789-0.61418zm-1.7115 1.1116c-5.0228-0.35207-4.4516-0.40534-4.8911 1.9618 1.8386-0.90735 3.9042-0.31256 4.8911-1.9618zm-3.2446 3.2145c2.2561-1.4831 2.6246-0.15346 2.7616-2.0655-4.3602 1.6736-4.2328-0.32315-4.4936 3.9536 0.36816-0.84808 0.89927-1.3409 1.7321-1.8881zm2.9692-0.25506c-0.94753-0.79728-5.1326 1.076-4.5538 4.5537 3.4776 0.57891 5.3511-3.6061 4.5538-4.5537zm1.8104 0.20744c-1.9121 0.13687-0.58251 0.50553-2.0654 2.7615-0.54716 0.83291-1.0399 1.3642-1.8882 1.7321 4.277-0.2607 2.28-0.13335 3.9537-4.4937zm1.1489-0.48296c-1.649 0.98672-1.0542 3.0522-1.9617 4.8909 2.3669-0.4392 2.3139 0.13194 1.9617-4.8909zm1.5099-4.1938c-1.9768 0.68721-3.716 1.0749-4.065 2.9171-0.06823 0.36019-0.12457 0.80998 0.10516 1.0428 0.2328 0.22966 0.68252 0.17322 1.0427 0.10513 1.8421-0.3489 2.2299-2.0881 2.9171-4.0651zm2.8064 5.4917c-1.058-0.67169-1.7314-1.9981-1.4641-3.9645 0.05482-0.40358 0.2225-0.79058 0.33595-1.1769 0.02071-0.0706 0.03856-0.139 0.06078-0.22155l-0.83365-0.48154c-1.6511 1.9159-0.86057 5.3605 1.2775 6.9243zm6.4294-1.0347-0.83365-0.48155c-0.0605 0.0607-0.11067 0.11042-0.16147 0.16369-0.27795 0.2914-0.52913 0.63006-0.85122 0.87912-1.5694 1.215-3.0548 1.295-4.1655 0.71438l-0.62339 1.0802c2.4234 1.0696 5.8016 0.0318 6.6353-2.3558zm-0.34664 5.9394c1.4208-1.2234 0.88713-2.9235 0.49385-4.9788-1.3684 1.5833-2.6806 2.7887-2.0617 4.5586 0.121 0.34608 0.29704 0.76377 0.61228 0.8502 0.31648 0.0829 0.67786-0.19085 0.9556-0.43004zm1.2831-0.59196c-0.93454 1.6789 0.61327 3.1704 0.74669 5.2165 1.8301-1.5642 2.0699-1.0428-0.74669-5.2165zm0.10703-2.038c0.01827 2.952 1.5656 2.5947 2.3577 5.3114 1.7464-3.9638-0.76087-2.6518-2.3577-5.3114zm4.28 1.0037c-1.2521-0.0526-2.4984-0.86466-3.2503-2.7012-0.15427-0.37712-0.2025-0.79622-0.29743-1.1874-0.0175-0.0713-0.03609-0.13935-0.05814-0.22225h-0.9627c-0.47188 2.485 1.9349 5.0726 4.5685 5.358zm0.24109-6.9596c-0.70474 1.3952-1.0426 1.4231-0.2365 2.6868 0.0605 0.0952 0.14841 0.14288 0.2365 0.14323 0.0881-3.5e-4 0.17604-0.048 0.2365-0.14323 0.80614-1.2636 0.46825-1.2915-0.2365-2.6868zm1.8937 2.4335c0.0107-0.079-0.13165-0.1584-0.7319-0.54257-0.15773 0.35454-0.29108 0.7306-0.49876 1.0576-0.11966 0.18839-0.26638 0.31292-0.42196 0.37606v1.3776c0.59806-0.14287 1.3723-0.78634 1.6526-2.2687zm1.4944 0.3429-1.0716-0.23672c-0.18496 0.6149-0.21047 1.2598-1.106 2.1107-0.31309 0.29739-0.63179 0.46391-0.96936 0.50624v1.3981c1.7314-0.21096 3.1496-2.2846 3.147-3.7782zm1.4216 0.0723h-0.96266c-0.0221 0.0829-0.0407 0.15099-0.0581 0.22225-0.0949 0.39123-0.14315 0.81033-0.29746 1.1874-0.75184 1.8366-1.9982 2.6486-3.2503 2.7012v1.2471c2.6336-0.2854 5.0404-2.873 4.5685-5.358zm-0.2885 3.1073c-1.5968 2.6596-4.1041 1.3476-2.3577 5.3114 0.79205-2.7167 2.3394-2.3594 2.3577-5.3114zm0.107 2.038c-2.8166 4.1737-2.5768 3.6523-0.74669 5.2165 0.13342-2.0461 1.6813-3.5377 0.74669-5.2165zm0.78923-4.3868c-0.39327 2.0553-0.92699 3.7553 0.49386 4.9788 0.2777 0.23919 0.63912 0.51294 0.9555 0.43004 0.31531-0.0864 0.49134-0.50412 0.61238-0.8502 0.61885-1.7699-0.69338-2.9753-2.0617-4.5586zm6.159 0.31503c-1.1106 0.58067-2.5961 0.50059-4.1655-0.71437-0.32212-0.24907-0.57333-0.58773-0.85125-0.87913-0.0508-0.0533-0.10097-0.10301-0.16143-0.16369l-0.83369 0.48155c0.83369 2.3876 4.2119 3.4255 6.6353 2.3558zm2.3186-6.0854-0.83369 0.48155c0.0222 0.0825 0.0401 0.15099 0.0608 0.22154 0.11346 0.38629 0.2811 0.77329 0.33592 1.1769 0.26726 1.9664-0.40605 3.2928-1.4641 3.9645l0.6235 1.0799c2.1381-1.5639 2.9286-5.0084 1.2775-6.9243zm3.8225 4.4178c0.36019 0.0681 0.80991 0.12453 1.0427-0.10513 0.22973-0.23283 0.17336-0.68262 0.10516-1.0428-0.349-1.8422-2.0882-2.2299-4.065-2.9171 0.68711 1.977 1.075 3.7162 2.9171 4.0651zm-1.4072 0.12876c-0.35231 5.0228-0.4052 4.4517 1.9617 4.8909-0.90745-1.8387-0.3127-3.9042-1.9617-4.8909zm3.2143 3.2445c-1.4829-2.256-0.15339-2.6247-2.0654-2.7615 1.6737 4.3603-0.32329 4.233 3.9537 4.4937-0.84832-0.36795-1.341-0.89923-1.8882-1.7321zm-0.25509-2.969c-0.79735 0.94756 1.0762 5.1326 4.554 4.5537 0.57855-3.4777-3.6064-5.3509-4.554-4.5537zm0.20761-1.8104c0.13694 1.912 0.50542 0.58243 2.7617 2.0655 0.83256 0.54716 1.3638 1.04 1.7318 1.8881-0.26071-4.2767-0.13335-2.28-4.4935-3.9536zm-0.48306-1.149c0.98689 1.6492 3.0525 1.0544 4.8912 1.9618-0.43957-2.3671 0.13158-2.3139-4.8912-1.9618zm-1.7115-1.1116c2.566 1.4605 3.03-0.0586 5.7789 0.61419-2.5598-3.4946-2.677-0.66711-5.7789-0.61419zm3.0093-3.2046c-0.67155 1.058-1.9981 1.7314-3.9645 1.464-0.40375-0.0547-0.79068-0.2226-1.1769-0.33584-0.0707-0.0208-0.13892-0.0384-0.22161-0.0607l-0.4813 0.83326c1.9159 1.6514 5.3604 0.86078 6.9243-1.2774zm-1.0348-6.4294-0.48129 0.83365c0.0606 0.0605 0.11024 0.11063 0.16344 0.16153 0.29143 0.27782 0.63003 0.52907 0.87944 0.85115 1.2147 1.5694 1.2948 3.0548 0.7143 4.1654l1.0799 0.62371c1.0697-2.4236 0.032-5.8018-2.3558-6.6355zm2.5467 1.8033c1.505 2.7128-0.88509 4.2282 3.4212 4.6977-1.9572-2.0444-0.87384-3.2058-3.4212-4.6977zm1.8182 0.92636c2.2063 4.526 1.875 4.0578 4.1444 3.2549-1.705-1.1385-2.2229-3.2247-4.1444-3.2549zm4.4062 1.2028c-2.4123-1.2125-1.4453-2.1963-3.1697-1.3589 3.6297 2.9393 1.8366 3.8272 5.6709 1.9147-0.91863 0.10534-1.6111-0.1083-2.5012-0.55584zm-1.7057-2.4438c-0.21661 1.2192 3.4985 3.9068 6.2205 1.6668-1.2376-3.3011-5.7986-2.8311-6.2205-1.6668zm-0.72532-1.6716c1.0746 1.5874 0.7292 0.2517 3.4244 0.40791 0.99483 0.0575 1.7011 0.21862 2.444 0.76917-2.3643-3.5736-1.2555-1.9078-5.8685-1.1771zm-5.3795 0.0357c1.5837 1.3684 2.7891 2.6807 4.5586 2.0617 0.34608-0.12093 0.76377-0.29704 0.85055-0.61238 0.0825-0.31637-0.19121-0.67769-0.43039-0.9555-1.2231-1.4208-2.9231-0.88713-4.9788-0.49386zm9.6034-1.5359c-1.5639-1.8301-1.0428-2.0698-5.2165 0.74673 1.6792 0.93454 3.1704-0.61327 5.2165-0.74673zm-6.2509-3.6403c-0.0526 1.252-0.86465 2.4985-2.7012 3.2502-0.37709 0.15431-0.79598 0.20253-1.1872 0.29747-0.0715 0.0174-0.13956 0.0361-0.22232 0.0581v0.96259c2.4848 0.47195 5.0724-1.9348 5.3578-4.5684zm-4.1108-4.0881c0.0828 0.0221 0.15081 0.0407 0.22232 0.0581 0.39126 0.0949 0.81015 0.14315 1.1872 0.29746 1.8366 0.75177 2.6486 1.9982 2.7012 3.2502h1.2471c-0.28539-2.6336-2.873-5.0404-5.3578-4.5684zm1.8016 2.6365c0.29754 0.31309 0.46391 0.63179 0.50617 0.96932h1.398c-0.21097-1.7313-2.2845-3.1495-3.778-3.147l-0.23665 1.0717c0.61486 0.1849 1.2595 0.2104 2.1105 1.1059zm-2.2168-0.68326c-0.0792-0.0108-0.15847 0.13165-0.54268 0.73191 0.35448 0.15772 0.73068 0.29114 1.0575 0.49875 0.18852 0.11966 0.31302 0.26638 0.37637 0.42192h1.3774c-0.14259-0.59802-0.78613-1.3723-2.2685-1.6526zm-0.55739-2.8004c-0.0621 0.0426-0.10502 0.10076-0.1385 0.16517-0.0528 0.10153-0.0781 0.2153-0.0846 0.32957-0.0924 1.6168-2.3901 2.1639-3.5155 0.72552-0.15452-0.19752-0.24857-0.12192-2.2406 0.4705 1.2513 0.11469 2.2481 1.483 2.3769 2.7861 2.9915-0.22987 3.719-1.3198 4.0814-3.2516 0.0898-0.47886 0.11709-0.91708 0.0414-1.3508-0.0129 4e-3 -0.0261 6e-3 -0.04 7e-3 -0.16312 9e-3 -0.34156 0.0229-0.48038 0.11828zm-3.4865 0.67472c0.38812 1.4328 3.1125 0.95406 2.6404-0.70749-0.42196-1.675-3.0206-0.72736-2.6404 0.70749zm3.1589-2.4596c-1.2797-1.4917-2.4547-2.0719-5.1604-0.7752 0.54006 1.193 0.36106 2.8763-0.66527 3.6013 2.0213-0.48299 2.1406-0.46447 2.1756-0.71282 0.25537-1.8084 2.5188-2.4835 3.4072-1.1294 0.0627 0.0957 0.14164 0.18157 0.23813 0.2431 0.0612 0.0391 0.12746 0.0679 0.20249 0.0738 0.16792 0.0131 0.32928-0.0643 0.47519-0.13779 0.0124-6e-3 0.0253-0.0105 0.0382-0.0138-0.1513-0.41349-0.39401-0.77932-0.71127-1.1492zm0.81227-4.1959c0.13219 0.31341 0.14743 0.67271 0.0463 1.0926-0.28924 1.2011-0.83477 1.5454-1.2748 2.0131l0.74076 0.80966c1.2948-0.74454 2.3814-3.0095 1.6985-4.6144zm-3.5449-0.90646c0.62502-0.14729 1.196-0.44754 2.3808-0.0975 0.41423 0.12241 0.71772 0.31517 0.92297 0.58639l1.2108-0.69903c-1.0484-1.3939-3.5532-1.5853-4.8454-0.83626zm2.9102 0.7161c-0.42249-0.44665-1.367-0.79541-2.7909-0.2969-0.0739 0.0302-0.0714 0.19318-0.10403 0.90512 0.38587-0.0406 0.77844-0.11313 1.1653-0.0968 0.22296 9e-3 0.40414 0.0742 0.53675 0.17731zm-0.9518 1.1064c0.023 0.16633-0.0114 0.35567-0.11483 0.55351-0.17924 0.34318-0.43836 0.64685-0.6665 0.96071 0.63292 0.32766 0.7728 0.41134 0.83594 0.36245 1.1436-0.98393 1.3138-1.9762 1.1383-2.5654zm-2.9997 1.4534c1.5607-0.0873 1.7537 0.19142 2.4451-1.1386 0.0519-0.0998 0.0495-0.19999 6e-3 -0.27626-0.0441-0.0763-0.12965-0.12845-0.24215-0.13335-1.4975-0.0662-1.3527 0.24027-2.2086 1.5482zm-0.72231-5.0032c-0.0325 0.068-0.0406 0.1397-0.0374 0.21227 5e-3 0.11426 0.0399 0.22553 0.0915 0.3278 0.72849 1.4464-0.98795 3.069-2.6818 2.386-0.23255-0.0938-0.27619 0.0187-1.7051 1.5278 1.141-0.52638 2.6883 0.16026 3.4514 1.2244 2.4758-1.6948 2.5609-3.0025 1.9088-4.8566-0.16165-0.45971-0.35716-0.85274-0.63956-1.1906-9e-3 0.01-0.0194 0.0186-0.0311 0.0263-0.13649 0.0897-0.2843 0.19071-0.35687 0.34265zm-2.682 2.3276c1.0524 1.0467 3.1726-0.73004 1.9329-1.9329-1.2029-1.2397-2.9796 0.88036-1.9329 1.9329zm1.5059-3.7095c-1.8542-0.65207-3.1618-0.56695-4.8566 1.9088 1.0642 0.76313 1.7508 2.3104 1.2244 3.4515 1.5091-1.429 1.6217-1.4726 1.5278-1.7052-0.68301-1.6938 0.93962-3.4102 2.386-2.6818 0.10227 0.0515 0.21354 0.0864 0.3278 0.0915 0.0726 3e-3 0.14432-5e-3 0.21227-0.0374 0.15194-0.0726 0.25294-0.22042 0.34262-0.35691 8e-3 -0.0116 0.0167-0.0217 0.0263-0.0311-0.33775-0.28247-0.73085-0.47791-1.1906-0.63952zm-1.3945-4.0399c0.27122 0.20536 0.46398 0.50885 0.58639 0.92308 0.35003 1.1847 0.0497 1.7557-0.0975 2.3808l1.0464 0.33087c0.74901-1.2922 0.5576-3.797-0.83626-4.8454zm-3.5233 0.9875c0.46768-0.44009 0.81203-0.98563 2.0131-1.2749 0.41984-0.10114 0.77914-0.0859 1.0926 0.0463l0.69903-1.2107c-1.6049-0.68294-3.8698 0.40365-4.6144 1.6985zm2.6878 2.301c0.71194-0.0326 0.87488-0.0301 0.90519-0.10404 0.49844-1.4239 0.14968-2.3684-0.29697-2.7909l-0.68873 1.1929c0.10305 0.13261 0.16789 0.31379 0.17731 0.53675 0.0163 0.38685-0.0562 0.77939-0.0968 1.1653zm-1.9516 1.0566c1.308-0.85598 1.6144-0.7111 1.5482-2.2086-5e-3 -0.1125-0.0571-0.19802-0.13335-0.24208-0.0763-0.044-0.17643-0.0464-0.2763 6e-3 -1.33 0.69138-1.0513 0.88438-1.1386 2.4451zm0.89994-2.8848c0.19783-0.1034 0.38706-0.1378 0.5535-0.11494l0.68873-1.1928c-0.58921-0.17555-1.5816-5e-3 -2.5654 1.1383-0.0489 0.0631 0.0347 0.20309 0.36241 0.83591 0.3139-0.22811 0.61757-0.48723 0.96076-0.66647zm-4.0271-1.087c6e-3 0.0751 0.0347 0.14133 0.0738 0.20253 0.0615 0.0965 0.14742 0.17537 0.2431 0.2382 1.3541 0.88833 0.67899 3.1518-1.1295 3.4072-0.24832 0.035-0.2298 0.15427-0.71278 2.1756 0.72495-1.0263 2.4083-1.2053 3.6013-0.66527 1.2967-2.7057 0.71649-3.8807-0.77523-5.1604-0.36985-0.31729-0.73564-0.55997-1.1491-0.71127-3e-3 0.0129-7e-3 0.0258-0.0138 0.0382-0.0734 0.14591-0.15088 0.30727-0.13775 0.47515zm-0.45142 0.71635c-1.6616-0.47212-2.1403 2.2523-0.70749 2.6404 1.4348 0.38023 2.3825-2.2184 0.70749-2.6404zm-7.3491 6.8211c0.0469 0.17522 0.28371 0.141 0.76193 0.13663 3.2e-4 -7e-3 3.6e-4 -0.0143 7.1e-4 -0.0209 1e-3 -0.0403 2e-3 -0.0693-2e-3 -0.094-0.32008-1.9115 0.77068-2.8676 1.8615-2.8677 1.0908 1.5e-4 2.1816 0.95621 1.8615 2.8677-4e-3 0.0247-3e-3 0.0537-2e-3 0.094 2.5e-4 7e-3 3.5e-4 0.0137 7e-4 0.0209 0.47823 4e-3 0.71505 0.0386 0.7619-0.13663 0.50539-1.894-1.0246-3.4521-2.6223-3.4491-1.5976-3e-3 -3.1276 1.5551-2.6223 3.4491zm-2.1901-8.1476c0.0094 0.16309 0.02293 0.3416 0.11829 0.48042 0.04258 0.0621 0.10072 0.10502 0.16514 0.1385 0.10156 0.0527 0.21534 0.0782 0.3296 0.0847 1.6169 0.0923 2.1639 2.3901 0.72552 3.5155-0.19752 0.15451-0.12192 0.24856 0.4705 2.2406 0.11465-1.2514 1.483-2.2481 2.7861-2.3769-0.2299-2.9914-1.3198-3.719-3.2516-4.0814-0.4789-0.0898-0.91712-0.11716-1.3508-0.0414 0.0036 0.0129 0.0064 0.0261 0.0072 0.04zm0.79301 3.9669c1.4327-0.38812 0.95412-3.1125-0.7075-2.6404-1.675 0.42196-0.72739 3.0206 0.7075 2.6404zm-3.2348 2.0015c1.193-0.53999 2.8763-0.36106 3.6013 0.66527-0.48295-2.0213-0.46443-2.1406-0.71279-2.1756-1.8084-0.25544-2.4835-2.5189-1.1294-3.4072 0.09564-0.0628 0.18158-0.14171 0.2431-0.2382 0.03905-0.0612 0.06795-0.12746 0.07377-0.20253 0.01312-0.16788-0.06435-0.32924-0.1378-0.47515-0.0063-0.0124-0.01048-0.0253-0.01376-0.0382-0.41349 0.1513-0.77932 0.39398-1.1492 0.71127-1.4916 1.2797-2.0718 2.4547-0.77512 5.1604zm-3.4207-5.9727c0.31341-0.13223 0.67271-0.14743 1.0926-0.0463 1.2011 0.28924 1.5454 0.83478 2.0131 1.2749l0.80977-0.74083c-0.74461-1.2948-3.0095-2.3814-4.6144-1.6985zm-1.9529 3.8758 1.0464-0.33087c-0.14728-0.62502-0.44753-1.196-0.09751-2.3808 0.12238-0.41423 0.31517-0.71772 0.58639-0.92308l-0.69903-1.2107c-1.3939 1.0484-1.5853 3.5531-0.83626 4.8454zm4.3223 0.71039c-0.08731-1.5607 0.19138-1.7537-1.1386-2.4451-0.09984-0.052-0.20002-0.0495-0.27626-6e-3 -0.07627 0.0441-0.12845 0.12958-0.13335 0.24208-0.06622 1.4975 0.24021 1.3526 1.5482 2.2086zm-1.4535-2.9998c0.16644-0.0229 0.35567 0.0115 0.55354 0.11494 0.34318 0.17924 0.64685 0.43836 0.96072 0.66647 0.32773-0.63282 0.41134-0.77276 0.36244-0.83591-0.98383-1.1437-1.9762-1.3138-2.5654-1.1383zm-0.59489 0.77795c0.0094-0.22296 0.07422-0.40414 0.17731-0.53675l-0.68873-1.1929c-0.44665 0.42249-0.79541 1.367-0.29697 2.7909 0.03027 0.0739 0.19325 0.0714 0.90516 0.10404-0.04057-0.38587-0.11314-0.77841-0.09677-1.1653zm-3.2975 2.5872c0.08971 0.13649 0.19068 0.28434 0.34265 0.35691 0.06795 0.0325 0.1397 0.0406 0.21223 0.0374 0.11426-5e-3 0.22557-0.0399 0.32784-0.0915 1.4464-0.72841 3.069 0.98796 2.386 2.6818-0.09391 0.23255 0.01866 0.27618 1.5278 1.7052-0.52638-1.1411 0.16023-2.6884 1.2245-3.4515-1.6949-2.4758-3.0025-2.5609-4.8567-1.9088-0.4597 0.16161-0.85284 0.35705-1.1906 0.63952 0.0096 9e-3 0.01859 0.0194 0.02625 0.0311zm0.73727 1.106c-1.2397 1.2029 0.88046 2.9796 1.9329 1.9329 1.0468-1.0526-0.73-3.1726-1.9329-1.9329zm0.13222 5.2837c0.76313-1.0642 2.3104-1.7508 3.4514-1.2244-1.4289-1.5091-1.4725-1.6216-1.7051-1.5278-1.6938 0.68301-3.4103-0.93962-2.6818-2.386 0.05154-0.10227 0.08647-0.21354 0.09147-0.3278 0.0032-0.0726-0.0048-0.14432-0.03736-0.21227-0.07257-0.15194-0.22042-0.25294-0.3569-0.34265-0.01168-8e-3 -0.02173-0.0166-0.03108-0.0263-0.2824 0.33782-0.47791 0.73085-0.63952 1.1906-0.65207 1.8542-0.56698 3.1618 1.9088 4.8566zm-3.8123-2.2233c-0.11247 5e-3 -0.19798 0.0571-0.24211 0.13335-0.04389 0.0763-0.04632 0.17642 0.0056 0.27626 0.69141 1.33 0.88441 1.0513 2.4451 1.1386-0.85598-1.308-0.71113-1.6144-2.2086-1.5482zm-2.1364-1.2388c0.20528-0.27122 0.50878-0.46398 0.92297-0.58639 1.1848-0.35003 1.7558-0.0498 2.3808 0.0975l0.33087-1.0464c-1.2923-0.74902-3.7971-0.55764-4.8455 0.83626zm0.98732 3.5233c-0.43998-0.46771-0.98552-0.81203-1.2748-2.0131-0.10114-0.41984-0.08594-0.77914 0.04628-1.0926l-1.2108-0.69903c-0.68291 1.6049 0.40368 3.8698 1.6985 4.6144zm0.59909-2.6073c0.13264-0.10308 0.31383-0.16789 0.53679-0.17731 0.38686-0.0163 0.77939 0.0562 1.1653 0.0968-0.0326-0.71194-0.03009-0.87492-0.10403-0.90512-1.4239-0.49851-2.3684-0.14975-2.7909 0.2969zm-0.12626 0.97113c-0.10336-0.19784-0.13776-0.38718-0.11483-0.55351l-1.1929-0.68873c-0.17554 0.58917-0.0053 1.5815 1.1383 2.5654 0.06311 0.0489 0.20299-0.0348 0.83591-0.36245-0.22811-0.31386-0.48726-0.61753-0.6665-0.96071zm-1.5621 3.8893c0.14591 0.0735 0.30727 0.15092 0.47516 0.13779 0.07503-6e-3 0.14132-0.0347 0.20253-0.0738 0.09645-0.0615 0.17537-0.14743 0.23809-0.2431 0.88844-1.3541 3.1519-0.67899 3.4072 1.1294 0.0351 0.24835 0.15438 0.22983 2.1757 0.71282-1.0264-0.72496-1.2054-2.4083-0.6653-3.6013-2.7057-1.2967-3.8807-0.71649-5.1604 0.7752-0.31725 0.36985-0.55996 0.73568-0.71127 1.1492 0.01298 3e-3 0.02586 7e-3 0.03828 0.0138zm1.1915 0.58921c-0.47212 1.6616 2.2523 2.1403 2.6404 0.70749 0.38022-1.4348-2.2184-2.3825-2.6404-0.70749zm-1.3251 1.2581c0.36234 1.9318 1.0899 3.0217 4.0814 3.2516 0.12883-1.3031 1.1256-2.6714 2.3769-2.7861-1.992-0.59242-2.086-0.66802-2.2406-0.4705-1.1254 1.4384-3.4232 0.89133-3.5155-0.72552-0.0065-0.11427-0.03189-0.22804-0.08463-0.32957-0.03351-0.0644-0.07641-0.12255-0.1385-0.16517-0.13882-0.0954-0.31725-0.10887-0.48041-0.11828-0.01393-8.2e-4 -0.02713-4e-3 -0.04001-7e-3 -0.07571 0.43371-0.0484 0.87193 0.04138 1.3508zm-2.3469 3.2276h1.3774c0.06336-0.15554 0.18785-0.30226 0.37634-0.42192 0.32678-0.20761 0.70298-0.34103 1.0575-0.49875-0.38418-0.60026-0.46348-0.74271-0.54264-0.73191-1.4824 0.28031-2.1259 1.0546-2.2685 1.6526zm-1.8525 0h1.3981c0.0423-0.33753 0.20863-0.65623 0.5062-0.96932 0.85104-0.89553 1.4956-0.92103 2.1105-1.1059l-0.23668-1.0717c-1.4936-3e-3 -3.5671 1.4156-3.7781 3.147zm-0.40502 0c0.05256-1.252 0.86473-2.4985 2.7013-3.2502 0.37712-0.15431 0.79601-0.20253 1.1873-0.29746 0.07151-0.0174 0.13952-0.036 0.22232-0.0581v-0.96259c-2.4848-0.47195-5.0726 1.9348-5.3578 4.5684zm4.1109 4.0881c-0.0828-0.022-0.15081-0.0407-0.22232-0.0581-0.39127-0.0949-0.81016-0.14316-1.1873-0.29747-1.8366-0.75177-2.6488-1.9982-2.7013-3.2502h-1.2469c0.28529 2.6336 2.873 5.0404 5.3578 4.5684zm-1.8016-2.6365c-0.29757-0.31305-0.4639-0.63179-0.5062-0.96932h-1.3981c0.211 1.7313 2.2846 3.1495 3.7781 3.147l0.23668-1.0716c-0.61489-0.18496-1.2595-0.21047-2.1105-1.106zm2.2168 0.68326c0.07916 0.0108 0.15847-0.13165 0.54264-0.73187-0.35447-0.15776-0.73067-0.29118-1.0575-0.49879-0.18849-0.11966-0.31298-0.26635-0.37634-0.42192h-1.3774c0.14263 0.59803 0.78616 1.3723 2.2685 1.6526zm2.4334-1.8937c-1.3952-0.70478-1.4231-1.0426-2.6868-0.2365-0.09504 0.0605-0.14295 0.14837-0.14302 0.2365 7.1e-5 0.0881 0.04798 0.176 0.14302 0.2365 1.2636 0.8061 1.2915 0.46824 2.6868-0.2365zm-1.876 4.6941c0.06209-0.0426 0.10499-0.10072 0.1385-0.16517 0.05274-0.10153 0.07811-0.2153 0.08463-0.32957 0.09236-1.6168 2.3901-2.1639 3.5155-0.72552 0.15452 0.19752 0.24857 0.12192 2.2406-0.4705-1.2513-0.11469-2.2481-1.483-2.3769-2.7861-2.9915 0.22987-3.719 1.3198-4.0814 3.2516-0.08978 0.47897-0.11709 0.91708-0.04138 1.3508 0.01288-4e-3 0.02607-6e-3 0.04001-7e-3 0.16316-9e-3 0.3416-0.0229 0.48041-0.11829zm3.4865-0.67472c-0.38813-1.4328-3.1125-0.95406-2.6404 0.70749 0.42196 1.675 3.0206 0.72739 2.6404-0.70749zm-3.1589 2.4596c1.2797 1.4918 2.4547 2.0719 5.1604 0.7752-0.54007-1.193-0.36107-2.8763 0.6653-3.6013-2.0213 0.48299-2.1406 0.46447-2.1757 0.71282-0.25534 1.8084-2.5188 2.4835-3.4072 1.1294-0.06272-0.0957-0.14164-0.18157-0.23809-0.2431-0.06121-0.039-0.12749-0.0679-0.20253-0.0738-0.16789-0.0131-0.32925 0.0643-0.47516 0.13779-0.01242 6e-3 -0.02529 0.0106-0.03828 0.0138 0.15131 0.41349 0.39402 0.77932 0.71127 1.1492zm-0.81224 4.1959c-0.13222-0.3134-0.14743-0.67271-0.04628-1.0926 0.28924-1.2011 0.83478-1.5454 1.2748-2.0131l-0.74073-0.80966c-1.2948 0.74457-2.3814 3.0095-1.6985 4.6143zm3.5449 0.9064c-0.62502 0.14746-1.196 0.44767-2.3808 0.0977-0.4142-0.12242-0.71769-0.31539-0.92297-0.58667l-1.2108 0.6992c1.0484 1.3938 3.5532 1.5854 4.8455 0.83608zm-2.9102-0.71604c0.42252 0.44651 1.367 0.79541 2.7909 0.29694 0.07394-0.0303 0.07144-0.19322 0.10403-0.90513-0.38587 0.0406-0.7784 0.11314-1.1653 0.0968-0.22296-9e-3 -0.40414-0.0742-0.53679-0.17723zm0.9518-1.1063c-0.02293-0.16637 0.01147-0.3557 0.11483-0.55354 0.17925-0.34318 0.4384-0.64686 0.6665-0.96072-0.63292-0.32766-0.7728-0.41134-0.83591-0.36245-1.1436 0.98394-1.3138 1.9762-1.1383 2.5654zm2.9997-1.4535c-1.5607 0.0873-1.7537-0.19142-2.4451 1.1386-0.05193 0.0998-0.04949 0.20002-0.0056 0.27626 0.04413 0.0763 0.12965 0.12844 0.24211 0.13335 1.4975 0.0662 1.3527-0.24021 2.2086-1.5482zm0.72231 5.0034c0.03253-0.0681 0.04057-0.1397 0.03736-0.21237-5e-3 -0.1143-0.03993-0.22543-0.09147-0.32773-0.72852-1.4464 0.98795-3.0692 2.6818-2.3862 0.23255 0.0938 0.27619-0.0187 1.7051-1.5278-1.141 0.52638-2.6883-0.16027-3.4514-1.2245-2.4758 1.6949-2.5609 3.0025-1.9088 4.8565 0.16161 0.46002 0.35712 0.85301 0.63952 1.1906 0.0093-0.01 0.0194-0.0187 0.03108-0.0261 0.13649-0.09 0.28434-0.19085 0.3569-0.34255zm2.682-2.3277c-1.0524-1.0467-3.1726 0.73001-1.9329 1.933 1.2029 1.2397 2.9797-0.88053 1.9329-1.933zm-1.5059 3.7096c1.8541 0.65193 3.1618 0.56691 4.8567-1.9089-1.0642-0.76306-1.7508-2.3104-1.2245-3.4515-1.5091 1.429-1.6217 1.4726-1.5278 1.7053 0.68301 1.6937-0.93966 3.4103-2.386 2.6818-0.10227-0.0515-0.21357-0.0864-0.32784-0.0917-0.07253-3e-3 -0.14429 5e-3 -0.21223 0.0374-0.15198 0.0727-0.25294 0.22048-0.34265 0.35701-0.0077 0.0116-0.01665 0.0219-0.02625 0.031 0.33771 0.28257 0.73085 0.47801 1.1906 0.63958zm1.3945 4.04c-0.27122-0.20532-0.46401-0.50906-0.58639-0.92322-0.35003-1.1846-0.04978-1.7558 0.09751-2.3809l-1.0464-0.3309c-0.74905 1.2926-0.55764 3.7973 0.83626 4.8454zm3.5232-0.98742c-0.46768 0.43991-0.81199 0.9853-2.0131 1.2746-0.41984 0.10125-0.77914 0.0861-1.0926-0.0462l-0.69903 1.2108c1.6049 0.68298 3.8698-0.40358 4.6144-1.6986zm-2.6878-2.3012c-0.7119 0.0325-0.87489 0.03-0.90516 0.10407-0.49844 1.4238-0.14968 2.3682 0.29697 2.7908l0.68873-1.1931c-0.10308-0.1323-0.16789-0.31362-0.17731-0.53658-0.01637-0.387 0.0562-0.77929 0.09677-1.1652zm1.9516-1.0566c-1.308 0.85584-1.6145 0.7112-1.5482 2.2084 0.0049 0.11253 0.05708 0.19826 0.13335 0.24235 0.07624 0.0437 0.17642 0.0462 0.27626-6e-3 1.33-0.69144 1.0513-0.88441 1.1386-2.4451zm-0.89994 2.8847c-0.19787 0.10336-0.3871 0.13794-0.55354 0.115l-0.68873 1.1928c0.58921 0.17568 1.5816 6e-3 2.5654-1.1381 0.0489-0.0632-0.03471-0.2032-0.36244-0.83609-0.31387 0.22825-0.61754 0.48719-0.96072 0.6664zm4.0271 1.0869c-0.0058-0.0748-0.03471-0.14111-0.07377-0.2025-0.06152-0.0963-0.14746-0.17533-0.2431-0.23812-1.3541-0.8883-0.67899-3.1517 1.1294-3.4071 0.24836-0.0349 0.22984-0.15416 0.71279-2.1756-0.72496 1.0262-2.4083 1.2054-3.6013 0.66534-1.2967 2.7054-0.71649 3.8806 0.77512 5.1604 0.36992 0.31715 0.73575 0.55986 1.1492 0.7112 0.0032-0.0131 0.0075-0.0258 0.01376-0.0384 0.07345-0.1457 0.15092-0.30727 0.1378-0.47519zm0.45142-0.71614c1.6616 0.47202 2.1402-2.2525 0.7075-2.6405-1.4349-0.3803-2.3825 2.2186-0.7075 2.6405zm7.3491-6.8212c-0.0468-0.17522-0.28367-0.141-0.76189-0.13663-3.2e-4 7e-3 -3.6e-4 0.0142-7.1e-4 0.0209-1e-3 0.0403-2e-3 0.0693 2e-3 0.094 0.32008 1.9115-0.77071 2.8675-1.8615 2.8678-1.0908-3.5e-4 -2.1815-0.95638-1.8615-2.8678 4e-3 -0.0247 3e-3 -0.0537 2e-3 -0.094-2.1e-4 -7e-3 -3.5e-4 -0.0137-7.1e-4 -0.0209-0.47822-4e-3 -0.71504-0.0386-0.76192 0.13663-0.50536 1.894 1.0247 3.4522 2.6223 3.449 1.5976 3e-3 3.1277-1.555 2.6223-3.449zm2.1901 8.1476c-9e-3 -0.16298-0.023-0.34149-0.11828-0.48048-0.0426-0.0621-0.10075-0.10513-0.16517-0.13829-0.10153-0.0529-0.2153-0.0783-0.32957-0.085-1.6168-0.0921-2.1639-2.3901-0.72552-3.5154 0.19752-0.15416 0.12188-0.24836-0.4705-2.2405-0.11469 1.2513-1.483 2.2482-2.7862 2.377 0.22991 2.9916 1.3198 3.719 3.2516 4.0813 0.47886 0.09 0.91708 0.11712 1.3508 0.0413-4e-3 -0.0127-7e-3 -0.0261-7e-3 -0.0399zm-0.793-3.967c-1.4328 0.38805-0.95413 3.1126 0.70749 2.6405 1.675-0.42192 0.72736-3.0208-0.70749-2.6405zm3.2348-2.0013c-1.193 0.5401-2.8763 0.36089-3.6013-0.66534 0.48299 2.0214 0.46447 2.1407 0.71279 2.1756 1.8084 0.25541 2.4836 2.5188 1.1294 3.4071-0.0957 0.0628-0.18157 0.14181-0.2431 0.23812-0.0391 0.0614-0.068 0.12771-0.0738 0.2025-0.0131 0.16792 0.0644 0.32949 0.13776 0.47519 6e-3 0.0127 0.0105 0.0254 0.0138 0.0384 0.41349-0.15134 0.77929-0.39405 1.1491-0.7112 1.4917-1.2799 2.0719-2.455 0.77523-5.1604zm3.4207 5.9725c-0.31341 0.13229-0.67271 0.14746-1.0926 0.0462-1.2011-0.28928-1.5454-0.83468-2.0131-1.2746l-0.80973 0.74048c0.74461 1.295 3.0095 2.3816 4.6144 1.6986zm1.9529-3.876-1.0464 0.3309c0.14728 0.62512 0.44757 1.1963 0.0975 2.3809-0.12242 0.41416-0.31517 0.7179-0.58639 0.92322l0.69903 1.2104c1.3939-1.0481 1.5853-3.5528 0.83626-4.8454zm-4.3223-0.71014c0.0873 1.5607-0.19142 1.7536 1.1386 2.4451 0.0999 0.0519 0.20002 0.0494 0.2763 6e-3 0.0762-0.0441 0.12844-0.12982 0.13335-0.24236 0.0662-1.4972-0.24021-1.3526-1.5482-2.2084zm1.4534 2.9997c-0.16644 0.0229-0.35567-0.0116-0.5535-0.115-0.34319-0.17921-0.64686-0.43815-0.96076-0.6664-0.32773 0.63289-0.4113 0.77294-0.36241 0.83609 0.98383 1.1437 1.9762 1.3137 2.5654 1.1381zm0.59493-0.77787c-9e-3 0.22296-0.0743 0.40428-0.17731 0.53657l0.68873 1.1931c0.44665-0.42263 0.79541-1.367 0.29697-2.7908-0.0303-0.0741-0.19325-0.0716-0.90519-0.10407 0.0406 0.38594 0.11313 0.77823 0.0968 1.1652zm3.2974-2.5873c-0.0897-0.13653-0.19068-0.28434-0.34262-0.35701-0.0679-0.0325-0.1397-0.0406-0.21227-0.0374-0.11426 5e-3 -0.22553 0.0402-0.3278 0.0917-1.4464 0.72848-3.069-0.98813-2.386-2.6818 0.0939-0.23262-0.0187-0.27626-1.5278-1.7053 0.52641 1.1411-0.16023 2.6884-1.2244 3.4515 1.6948 2.4758 3.0025 2.5608 4.8566 1.9089 0.45971-0.16157 0.85281-0.35701 1.1906-0.63959-0.01-9e-3 -0.0186-0.0194-0.0263-0.031zm-0.73727-1.106c1.2397-1.203-0.88047-2.9797-1.9329-1.933-1.0467 1.0524 0.73004 3.1726 1.9329 1.933zm-0.13222-5.2837c-0.76313 1.0642-2.3104 1.7508-3.4514 1.2245 1.4289 1.5091 1.4726 1.6216 1.7051 1.5278 1.6938-0.68301 3.4103 0.93977 2.6818 2.3862-0.0515 0.10231-0.0865 0.21344-0.0915 0.32774-3e-3 0.0727 5e-3 0.14428 0.0374 0.21237 0.0726 0.15169 0.22038 0.25259 0.35687 0.34254 0.0117 7e-3 0.0218 0.0166 0.0311 0.0261 0.28239-0.3376 0.4779-0.7306 0.63955-1.1906 0.65207-1.854 0.56695-3.1616-1.9088-4.8565zm3.8122 2.2234c0.1125-5e-3 0.19802-0.0571 0.24215-0.13335 0.0439-0.0762 0.0463-0.17643-6e-3 -0.27626-0.69137-1.33-0.88438-1.0514-2.4451-1.1386 0.85594 1.308 0.71109 1.6144 2.2086 1.5482zm2.1364 1.2386c-0.20525 0.27129-0.50874 0.46426-0.92297 0.58667-1.1847 0.34996-1.7557 0.0497-2.3808-0.0977l-0.33087 1.0463c1.2922 0.7493 3.797 0.55775 4.8454-0.83608zm-0.98732-3.5231c0.44002 0.46772 0.98556 0.81203 1.2748 2.0131 0.10114 0.41984 0.0859 0.77915-0.0463 1.0926l1.2107 0.69896c0.68295-1.6048-0.40365-3.8698-1.6985-4.6143zm-0.59909 2.6074c-0.13261 0.10302-0.31379 0.16782-0.53675 0.17724-0.38685 0.0164-0.77942-0.0562-1.1653-0.0968 0.0326 0.71191 0.0301 0.87478 0.10403 0.90512 1.4239 0.49848 2.3684 0.14958 2.7909-0.29693zm0.12626-0.97119c0.1034 0.19783 0.1378 0.38717 0.11483 0.55354l1.1929 0.68869c0.17554-0.58917 5e-3 -1.5815-1.1383-2.5654-0.0631-0.0489-0.20302 0.0348-0.83594 0.36245 0.22814 0.31386 0.48726 0.61753 0.6665 0.96072zm1.5621-3.8893c-0.14591-0.0734-0.30727-0.15092-0.47519-0.13779-0.075 6e-3 -0.14129 0.0348-0.20249 0.0738-0.0965 0.0615-0.1754 0.14743-0.23813 0.2431-0.8884 1.3541-3.1519 0.67899-3.4072-1.1294-0.0351-0.24835-0.15434-0.22983-2.1756-0.71282 1.0263 0.72496 1.2053 2.4083 0.66527 3.6013 2.7057 1.2967 3.8807 0.7166 5.1604-0.7752 0.31726-0.36985 0.55997-0.73568 0.71127-1.1492-0.013-3e-3 -0.0259-7e-3 -0.0382-0.0138zm-1.1915-0.58921c0.47208-1.6616-2.2523-2.1403-2.6404-0.70749-0.38023 1.4349 2.2184 2.3825 2.6404 0.70749zm-6.8211-7.3492c-0.17522 0.047-0.141 0.28371-0.13673 0.76211 7e-3 2.1e-4 0.0143 3.9e-4 0.021 6.4e-4 0.0403 1e-3 0.0694 2e-3 0.094-2e-3 1.9114-0.32008 2.8675 0.77071 2.8677 1.8615-1.8e-4 1.0908-0.95624 2.1815-2.8677 1.8615-0.0246-4e-3 -0.0537-3e-3 -0.094-2e-3 -7e-3 2.4e-4 -0.0137 4.2e-4 -0.021 6.7e-4 -4e-3 0.47836-0.0385 0.71511 0.13673 0.76207 1.894 0.50528 3.4521-1.0248 3.4491-2.6223 3e-3 -1.5976-1.5551-3.1277-3.4491-2.6224zm-2.7608-5.0584c-0.12827 0.1282 0.0198 0.31612 0.26268 0.72827 6e-3 -3e-3 0.0126-7e-3 0.0185-0.01 0.0355-0.0189 0.0612-0.0327 0.0804-0.0486 1.4954-1.2329 2.8687-0.76634 3.4143 0.17823 0.54525 0.94477 0.26261 2.3674-1.5528 3.046-0.0233 9e-3 -0.0481 0.0241-0.0823 0.0454-6e-3 4e-3 -0.0117 7e-3 -0.0179 0.011 0.23544 0.41638 0.32427 0.63856 0.49939 0.59161 1.8929-0.50948 2.4772-2.6135 1.6759-3.9955-0.79622-1.3851-2.9106-1.9311-4.2982-0.54645zm-4.3285-2.5011c4e-3 -6e-3 8e-3 -0.0121 0.011-0.0178 0.0213-0.0343 0.0366-0.0589 0.0454-0.0823 0.6786-1.8154 2.1012-2.0981 3.0459-1.5528 0.94463 0.54553 1.4112 1.919 0.17829 3.4143-0.0159 0.0193-0.0296 0.045-0.0486 0.0804-3e-3 6e-3 -7e-3 0.0121-0.01 0.0185 0.41212 0.24289 0.60008 0.39095 0.72828 0.26268 1.3847-1.3877 0.83866-3.502-0.54639-4.2982-1.3821-0.80141-3.4861-0.2171-3.9956 1.6759-0.047 0.17512 0.17522 0.26395 0.59161 0.49939zm-3.383 1.9302c0.12502 0.0637 0.26613 0.10298 0.41275 0.15194 0.33884-0.72245 0.83778-1.7815 1.8211-1.5336 0.97536 0.27693 0.87793 1.4436 0.81023 2.2386 0.15144 0.0309 0.29326 0.0675 0.43338 0.0748 0.53774 0.0276 0.57009-2.4895-1.091-2.8834-1.6354-0.48934-2.8659 1.7067-2.3865 1.9516zm-1.8165-2.7176c0.0475 0.48549 0.0299 0.4531 0.7529 0.88085-0.35334-1.5528 0.18136-2.3291 0.7161-2.3291 0.53478 0 1.0694 0.77633 0.71611 2.3291 0.72294-0.42775 0.70541-0.39536 0.75289-0.88085 0.15276-1.5257-0.65821-2.2885-1.469-2.2886-0.81079 7e-5 -1.6218 0.76288-1.469 2.2886zm-2.3559 3.6494c0.14012-7e-3 0.2819-0.0439 0.43339-0.0748-0.06773-0.79509-0.16517-1.9617 0.81023-2.2386 0.98329-0.24787 1.4822 0.81114 1.8211 1.5336 0.14662-0.049 0.28769-0.0882 0.41275-0.15194 0.47943-0.2449-0.75113-2.4409-2.3865-1.9516-1.6611 0.39391-1.6287 2.911-1.0909 2.8834zm-3.8559-0.73907c0.1282 0.12827 0.31612-0.0198 0.72824-0.26268-0.0035-6e-3 -0.0067-0.0126-0.01006-0.0185-0.01884-0.0355-0.0326-0.0612-0.04847-0.0804-1.2329-1.4953-0.76634-2.8688 0.17829-3.4143 0.9447-0.54526 2.3673-0.26261 3.0459 1.5528 0.0088 0.0234 0.0241 0.0481 0.04544 0.0823 0.0035 6e-3 0.0072 0.0116 0.01101 0.0178 0.41642-0.23544 0.63863-0.32427 0.59164-0.49939-0.50948-1.893-2.6135-2.4773-3.9956-1.6759-1.385 0.79622-1.931 2.9105-0.54635 4.2982zm-3.0005 4.9201c0.17516 0.047 0.26398-0.17523 0.49943-0.59161-0.0062-4e-3 -0.01217-8e-3 -0.01789-0.011-0.03422-0.0213-0.05895-0.0367-0.0823-0.0454-1.8154-0.67861-2.098-2.1012-1.5528-3.046 0.54564-0.94457 1.9189-1.4111 3.4143-0.17823 0.01923 0.0159 0.04491 0.0296 0.08043 0.0486 0.0059 3e-3 0.01206 7e-3 0.01852 0.01 0.24285-0.41215 0.39095-0.60007 0.26268-0.72827-1.3877-1.3847-3.502-0.83866-4.2982 0.54645-0.80137 1.382-0.21699 3.486 1.6759 3.9955zm-0.13839 5.7612c0.17522-0.047 0.14097-0.28371 0.1367-0.76207-0.0073-2.5e-4 -0.01432-4.3e-4 -0.02099-6.7e-4 -0.04029-1e-3 -0.06943-2e-3 -0.09398 2e-3 -1.9115 0.32007-2.8676-0.77072-2.8677-1.8615 1.41e-4 -1.0908 0.9562-2.1816 2.8677-1.8615 0.02455 4e-3 0.05369 3e-3 0.09398 2e-3 0.0067-2.5e-4 0.01369-4.3e-4 0.02099-6.4e-4 0.0043-0.4784 0.03852-0.71515-0.1367-0.76211-1.894-0.50528-3.4521 1.0248-3.4491 2.6224-3e-3 1.5976 1.5551 3.1276 3.4491 2.6223zm2.7608 5.0584c0.12827-0.1282-0.01983-0.31612-0.26268-0.72817-0.0065 3e-3 -0.01263 7e-3 -0.01852 0.01-0.03552 0.019-0.06121 0.0327-0.08043 0.0485-1.4954 1.2329-2.8687 0.76634-3.4143-0.17819-0.54522-0.94481-0.26257-2.3674 1.5528-3.046 0.02335-9e-3 0.04808-0.0241 0.0823-0.0454 0.0057-3e-3 0.01168-7e-3 0.01789-0.011-0.23544-0.41642-0.32427-0.63857-0.49943-0.59165-1.8929 0.50948-2.4772 2.6135-1.6759 3.9956 0.79625 1.385 2.9106 1.931 4.2982 0.54635zm4.3285 2.5012c-0.0038 6e-3 -0.0075 0.0121-0.01101 0.0178-0.02134 0.0342-0.03665 0.0589-0.04544 0.0823-0.67857 1.8153-2.1012 2.0979-3.0459 1.5529-0.94463-0.5454-1.4112-1.919-0.17829-3.4143 0.01588-0.0192 0.02963-0.0449 0.04847-0.0804 0.0033-6e-3 0.0066-0.0121 0.01006-0.0185-0.41212-0.24285-0.60004-0.39094-0.72824-0.26267-1.3847 1.3877-0.83866 3.5018 0.54635 4.2981 1.3821 0.80152 3.4861 0.21732 3.9956-1.6757 0.04699-0.17511-0.17522-0.26394-0.59164-0.49932zm3.383-1.9302c-0.12506-0.0638-0.26613-0.10301-0.41275-0.15198-0.33888 0.72249-0.83778 1.7815-1.8211 1.5336-0.9754-0.27693-0.87796-1.4436-0.81023-2.2387-0.15148-0.0309-0.29326-0.0675-0.43339-0.0748-0.53774-0.0276-0.57012 2.4895 1.0909 2.8835 1.6354 0.48927 2.8659-1.7068 2.3865-1.9516zm1.8164 2.7175c-0.0475-0.48539-0.0299-0.45311-0.75289-0.88086 0.35334 1.5528-0.18133 2.3289-0.71611 2.3289-0.53474 0-1.0694-0.77611-0.7161-2.3289-0.72295 0.42775-0.70538 0.39547-0.7529 0.88086-0.15275 1.5257 0.65821 2.2884 1.469 2.2884s1.6218-0.7627 1.469-2.2884zm2.3559-3.6494c-0.14012 7e-3 -0.28194 0.0439-0.43338 0.0748 0.0677 0.79509 0.16513 1.9617-0.81023 2.2387-0.98329 0.24793-1.4822-0.81111-1.8211-1.5336-0.14662 0.049-0.28773 0.0882-0.41275 0.15198-0.47946 0.24486 0.7511 2.4409 2.3865 1.9516 1.661-0.39391 1.6287-2.911 1.091-2.8834zm3.8559 0.73903c-0.1282-0.12827-0.31616 0.0198-0.72827 0.26268 4e-3 6e-3 7e-3 0.0126 0.01 0.0185 0.0189 0.0355 0.0327 0.0612 0.0486 0.0804 1.2329 1.4954 0.76634 2.8689-0.1783 3.4143-0.9447 0.54504-2.3673 0.26246-3.0459-1.5529-9e-3 -0.0233-0.0241-0.0481-0.0454-0.0823-4e-3 -6e-3 -7e-3 -0.0117-0.011-0.0178-0.41638 0.23537-0.63863 0.3242-0.5916 0.49932 0.50948 1.893 2.6135 2.4772 3.9956 1.6757 1.385-0.79622 1.9311-2.9104 0.54638-4.2981zm2.5011-4.3285c6e-3 4e-3 0.0121 8e-3 0.0179 0.011 0.0342 0.0213 0.0589 0.0367 0.0823 0.0454 1.8154 0.67857 2.0981 2.1012 1.5528 3.046-0.54561 0.94453-1.9189 1.4111-3.4143 0.17819-0.0193-0.0159-0.0449-0.0296-0.0804-0.0485-6e-3 -3e-3 -0.0121-7e-3 -0.0185-0.01-0.24289 0.41205-0.39095 0.59997-0.26268 0.72817 1.3876 1.3847 3.502 0.83866 4.2982-0.54635 0.80137-1.3821 0.21703-3.4862-1.6759-3.9956-0.17512-0.0469-0.26395 0.17523-0.49939 0.59165zm-0.0935-4.4466c1.5528-0.35334 2.3291 0.18133 2.3291 0.71611 0 0.53474-0.77632 1.0694-2.3291 0.7161 0.42774 0.72291 0.39536 0.70538 0.88092 0.7529 1.5256 0.15275 2.2885-0.65814 2.2885-1.469 0-0.8109-0.76289-1.6218-2.2885-1.469-0.48556 0.0475-0.45318 0.0299-0.88092 0.75289zm-5.6616-6.2563c0.0763 0.11772 0.17893 0.22225 0.28141 0.33796 0.65469-0.45625 1.6163-1.124 2.3439-0.41762 0.70633 0.72753 0.0386 1.6892-0.41762 2.3438 0.11571 0.10252 0.22024 0.20511 0.33796 0.28152 0.4518 0.2928 1.7384-1.871 0.49692-3.0426-1.1716-1.2415-3.3354 0.0451-3.0425 0.49693zm0.39592-1.3807c0.0641 0.037 0.15067 0.0352 0.2135-0.0319 0.66118-0.70661 1.4963-1.6949 0.94365-1.9724-0.51664-0.3398-0.95501 0.87746-1.2363 1.8034-0.0267 0.088 0.015 0.1638 0.0791 0.20084zm1.386-2.4007c0.46309 0.26734 0.53805 1.2071-0.54434 2.3751 0.83986-9e-3 0.8086 0.0103 1.0925-0.38636 0.895-1.2449 0.57422-2.311-0.12795-2.7165-0.70228-0.40534-1.7859-0.15018-2.4165 1.2475-0.20165 0.44419-0.20069 0.40736 0.2116 1.1393 0.47029-1.5214 1.3216-1.9264 1.7847-1.659zm-4.2346 5.0435c0.39053 0.39352 0.57076 0.83383 0.54804 1.3419 0.42863-0.27365 0.90004-0.33782 1.4361-0.19632 0.34544 0.0912 1.1401-1.5295-0.0309-2.2375-1.1987-0.66022-2.2048 0.83834-1.9532 1.0919zm-0.23643-0.78126 2e-3 -2e-3c3.2e-4 1e-3 7.1e-4 2e-3 1e-3 3e-3 1.0162-0.98757 1.2898-1.2588 1.3485-1.901 0.0366-0.40062-0.25107-0.69124-0.62851-0.79252-0.37747-0.101-0.77205 7e-3 -0.94068 0.372-0.27023 0.58565-0.16884 0.9573 0.21742 2.3207zm-1.5192 2.4272c0.40143 0.25612 0.46817 0.67331 0.58371 1.0437 3e-3 -3e-3 7e-3 -6e-3 0.01-9e-3 1e-3 4e-3 2e-3 8e-3 4e-3 0.0124 0.28519-0.26292 0.55164-0.5909 1.0274-0.612 0.46027-0.32321 0.2951-1.6975-0.3701-1.8681-0.66124-0.18489-1.4914 0.92272-1.2545 1.4328zm-1.6914-1.4328c-0.6652 0.17053-0.83037 1.5448-0.37007 1.8681 0.47572 0.0211 0.74218 0.34908 1.0274 0.612 1e-3 -4e-3 2e-3 -8e-3 4e-3 -0.0124 3e-3 3e-3 6e-3 6e-3 0.01 9e-3 0.11557-0.37042 0.18231-0.78761 0.58374-1.0437 0.23689-0.51005-0.59323-1.6177-1.2545-1.4328zm-1.6165-2.8946c0.0587 0.64226 0.33232 0.91344 1.3485 1.901 3.1e-4 -9.5e-4 7e-4 -2e-3 7e-4 -3e-3 7.1e-4 7e-4 1e-3 1e-3 2e-3 2e-3 0.38629-1.3634 0.48768-1.7351 0.21742-2.3207-0.1686-0.36523-0.56318-0.473-0.94068-0.372-0.37741 0.10128-0.66513 0.3919-0.62848 0.79252zm-0.86878 3.827c0.53604-0.1415 1.0074-0.0773 1.436 0.19632-0.0227-0.50803 0.15752-0.94834 0.54808-1.3419 0.25164-0.25358-0.75452-1.7521-1.9532-1.0919-1.1711 0.70796-0.37638 2.3287-0.03094 2.2375zm-1.7061-3.814c-1.0824-1.168-1.0075-2.1077-0.54434-2.3751 0.46299-0.2674 1.3144 0.13762 1.7846 1.659 0.41229-0.73191 0.41324-0.69508 0.21163-1.1393-0.63059-1.3977-1.7142-1.6528-2.4165-1.2475-0.7021 0.40552-1.0229 1.4716-0.12788 2.7165 0.28384 0.39666 0.25262 0.3774 1.0925 0.38636zm0.92078-0.17523c-0.28127-0.92597-0.71963-2.1432-1.2363-1.8034-0.55266 0.27749 0.28247 1.2658 0.94365 1.9724 0.06283 0.0671 0.14937 0.0689 0.21346 0.0319 0.06421-0.037 0.1059-0.11282 0.07916-0.20084zm-2.2288 4.1273c0.11772-0.0764 0.22222-0.179 0.33796-0.28152-0.45628-0.65465-1.124-1.6163-0.41769-2.3438 0.7276-0.70633 1.6892-0.0386 2.3439 0.41762 0.10252-0.11571 0.2051-0.22024 0.28145-0.33796 0.29284-0.45184-1.8709-1.7385-3.0425-0.49693-1.2415 1.1716 0.04509 3.3354 0.49692 3.0426zm-3.116 5.1429c-1.5528 0.35331-2.3291-0.18136-2.3291-0.7161 0-0.53478 0.77632-1.0694 2.3291-0.71611-0.42774-0.72294-0.39536-0.70541-0.88092-0.75289-1.5256-0.15279-2.2885 0.6581-2.2885 1.469 0 0.81086 0.76288 1.6218 2.2885 1.469 0.48556-0.0475 0.45318-0.03 0.88092-0.7529zm0.44295-0.7161c0-0.074-0.04477-0.1481-0.13437-0.16895-0.94245-0.21935-2.2159-0.44845-2.18 0.16895-0.03591 0.61736 1.2375 0.38827 2.18 0.16891 0.0896-0.0209 0.13437-0.0949 0.13437-0.16891zm5.2186 6.9724c-0.07634-0.11765-0.17893-0.22225-0.28145-0.33796-0.65465 0.45625-1.6163 1.124-2.3439 0.41762-0.7063-0.72753-0.03859-1.6892 0.41769-2.3438-0.11575-0.10252-0.22024-0.2051-0.33796-0.28152-0.45184-0.2928-1.7385 1.871-0.49692 3.0426 1.1716 1.2415 3.3354-0.0451 3.0425-0.49693zm-0.39596 1.3808c-0.0641-0.037-0.15064-0.0353-0.21346 0.0319-0.66118 0.70661-1.4963 1.6949-0.94365 1.9724 0.51664 0.33972 0.955-0.87754 1.2363-1.8035 0.02674-0.0879-0.01496-0.16376-0.07916-0.2008zm-1.386 2.4006c-0.46312-0.26734-0.53809-1.2071 0.54434-2.3751-0.83986 9e-3 -0.80864-0.0103-1.0925 0.38637-0.89503 1.2449-0.57422 2.3109 0.12788 2.7166 0.70231 0.40534 1.7859 0.14993 2.4165-1.2476 0.20161-0.44415 0.20066-0.40736-0.21163-1.1393-0.47025 1.5214-1.3216 1.9265-1.7846 1.659zm4.2346-5.0435c-0.39056-0.39349-0.57076-0.83382-0.54808-1.3418-0.42862 0.27368-0.9 0.33778-1.436 0.19632-0.34544-0.0913-1.1401 1.5295 0.03094 2.2374 1.1987 0.66022 2.2048-0.83834 1.9532-1.0919zm0.2364 0.78126c-7.1e-4 7.1e-4 -1e-3 2e-3 -2e-3 2e-3 -3.2e-4 -1e-3 -7.1e-4 -2e-3 -1e-3 -3e-3 -1.0162 0.98757-1.2898 1.2588-1.3485 1.901-0.03665 0.40061 0.25107 0.69123 0.62847 0.79251 0.37751 0.101 0.77209-7e-3 0.94068-0.372 0.27027-0.58565 0.16888-0.95727-0.21741-2.3207zm-0.0685-3.3631c0.25371 0.14842 0.94664-0.43741 1.0947-1.8961-1.1892 0.8575-1.3502 1.7506-1.0947 1.8961zm1.0947-4.3609c-0.14806-1.4587-0.84099-2.0445-1.0947-1.8961-0.25552 0.14552-0.0945 1.0386 1.0947 1.8961zm-2.417-0.57383c-0.14841 0.25372 0.43748 0.94664 1.8961 1.0947-0.8575-1.1893-1.7506-1.3502-1.8961-1.0947zm-2.3687 0.33331c-0.18486 0.66124 0.92272 1.4914 1.4328 1.2545 0.25615-0.40142 0.67335-0.46817 1.0437-0.5837-0.0028-3e-3 -0.0058-6e-3 -0.0088-0.01 0.0042-1e-3 0.0083-3e-3 0.01238-4e-3 -0.26289-0.28522-0.59087-0.55167-0.61196-1.0274-0.32322-0.4602-1.6975-0.29514-1.8681 0.3701zm-0.99437-0.26476c-7.41e-4 -8.2e-4 -0.0016-2e-3 -0.0023-2e-3 1e-3 -3.2e-4 0.0021-6.7e-4 0.0031-9.9e-4 -0.98757-1.0162-1.2588-1.2898-1.901-1.3485-0.40062-0.0366-0.69123 0.25114-0.79255 0.62848-0.10096 0.37761 0.0068 0.77208 0.37204 0.94071 0.58558 0.27023 0.95726 0.16884 2.3207-0.21741zm0.55922 2.8832c0.14552-0.53502 0.43677-0.91123 0.88812-1.1455-0.45134-0.23435-0.7426-0.61055-0.88812-1.1455-0.09373-0.34474-1.8946-0.22267-1.9222 1.1455 0.02755 1.3682 1.8284 1.4902 1.9222 1.1455zm-0.55841 0.59538c-0.0011-3.2e-4 -0.0021-6.3e-4 -0.0031-8.8e-4 7.76e-4 -8.1e-4 0.0016-2e-3 0.0023-2e-3 -1.3635-0.38629-1.7351-0.48768-2.3207-0.21742-0.36527 0.1686-0.473 0.56311-0.37204 0.94058 0.10132 0.37744 0.39194 0.6653 0.79255 0.62858 0.64223-0.0587 0.91345-0.33232 1.901-1.3485zm2.8617 0.1021c0.0211-0.47573 0.34907-0.74218 0.61196-1.0274-0.0041-1e-3 -0.0082-3e-3 -0.01238-4e-3 0.0028-3e-3 0.0059-6e-3 0.0088-0.01-0.37035-0.11557-0.78754-0.18232-1.0437-0.58374-0.51005-0.23689-1.6176 0.59323-1.4328 1.2545 0.17057 0.66523 1.5449 0.83029 1.8681 0.3701zm2.2061-1.843c-1.3373-0.60114-2.1912-0.29401-2.1895 0-0.0018 0.29397 0.8522 0.6011 2.1895 0zm-1.7055 1.8062c0.14549 0.25541 1.0386 0.0945 1.8961-1.0947-1.4586 0.1481-2.0445 0.84102-1.8961 1.0947zm0.92343 0.40873c-4e-3 9.2e-4 -8e-3 2e-3 -0.0127 3e-3 1e-3 -4e-3 2e-3 -8e-3 3e-3 -0.0127-0.37856 0.0851-0.77328 0.23594-1.1957 0.0163-0.56028 0.0499-1.1044 1.3225-0.61359 1.8029 0.48024 0.49071 1.7529-0.0534 1.8028-0.61363-0.21961-0.42248-0.0688-0.81724 0.0163-1.1957zm-2.3598 1.7433c-0.14146-0.53616-0.07729-1.0074 0.19643-1.4361-0.50814 0.0227-0.94834-0.15748-1.342-0.54804-0.25347-0.25171-1.7521 0.75452-1.0919 1.9532 0.70795 1.1711 2.3286 0.37638 2.2374 0.0309zm-0.18824 0.79244c-1.3739 0.3472-1.7465 0.44521-2.1185 0.97208-0.23188 0.32861-0.12795 0.72415 0.14817 1.0006 0.27654 0.27619 0.67208 0.38016 1.0007 0.14817 0.52687-0.372 0.62488-0.74454 0.97208-2.1184-0.0011 2.5e-4 -0.0021 4.9e-4 -0.0032 7.4e-4 2.47e-4 -1e-3 3.53e-4 -2e-3 7.05e-4 -3e-3zm0.0025-9.5038c-0.3472-1.3739-0.4452-1.7464-0.97208-2.1184-0.32861-0.23198-0.72415-0.12802-1.0006 0.14817-0.27622 0.27644-0.38015 0.67197-0.14827 1.0006 0.37204 0.52688 0.74461 0.62488 2.1185 0.97208-2.47e-4 -1e-3 -3.53e-4 -2e-3 -7.06e-4 -3e-3 0.0011 2.5e-4 0.0021 5e-4 0.0032 7.4e-4zm0.18584 0.79485c0.09116-0.34544-1.5295-1.1402-2.2374 0.0309-0.66022 1.1987 0.83841 2.2049 1.0919 1.9532 0.39363-0.39056 0.83382-0.57076 1.342-0.54804-0.27372-0.42855-0.33789-0.89993-0.19643-1.4361zm2.3434 0.54758c-0.0499-0.56021-1.3225-1.1043-1.8029-0.61352-0.49071 0.48024 0.05341 1.7529 0.61369 1.8028 0.42242-0.21961 0.81714-0.0688 1.1957 0.0164-1e-3 -4e-3 -2e-3 -8e-3 -3e-3 -0.0127 4e-3 9.5e-4 8e-3 2e-3 0.0127 3e-3 -0.0851-0.37853-0.23594-0.77329-0.0163-1.1958zm2.003 7.4752c-0.40143-0.25616-0.46817-0.67335-0.58374-1.0438-3e-3 3e-3 -6e-3 6e-3 -0.01 9e-3 -1e-3 -4e-3 -2e-3 -8e-3 -4e-3 -0.0124-0.28522 0.26293-0.55168 0.5909-1.0274 0.612-0.4603 0.32321-0.29513 1.6975 0.37007 1.8681 0.66128 0.18489 1.4914-0.92272 1.2545-1.4327zm0.21844-7.6769c-0.29397-2e-3 -0.6011 0.85217 0 2.1894 0.60113-1.3373 0.294-2.1911 0-2.1894zm0 5.0355c-0.6011 1.3373-0.29397 2.1911 0 2.1894 0.294 2e-3 0.60113-0.8521 0-2.1894zm1.473 4.0742c0.6652-0.17053 0.83037-1.5448 0.3701-1.8681-0.47576-0.0211-0.74221-0.34907-1.0274-0.612-1e-3 4e-3 -2e-3 8e-3 -4e-3 0.0124-3e-3 -3e-3 -6e-3 -6e-3 -0.01-9e-3 -0.11554 0.37042-0.18228 0.78761-0.58371 1.0438-0.23689 0.51001 0.59323 1.6176 1.2545 1.4327zm1.6165 2.8946c-0.0587-0.64227-0.33232-0.91345-1.3485-1.901-3.2e-4 9.9e-4 -7.1e-4 2e-3 -1e-3 3e-3 -7.1e-4 -7.4e-4 -1e-3 -2e-3 -2e-3 -2e-3 -0.38626 1.3634-0.48765 1.7351-0.21742 2.3207 0.16863 0.36526 0.56321 0.473 0.94068 0.372 0.37744-0.10128 0.66516-0.3919 0.62851-0.79251zm0.86878-3.827c-0.53604 0.14146-1.0075 0.0774-1.4361-0.19632 0.0227 0.508-0.15751 0.94833-0.54804 1.3418-0.25163 0.25358 0.75452 1.7521 1.9532 1.0919 1.1711-0.70796 0.37638-2.3287 0.0309-2.2374zm1.7061 3.8139c1.0824 1.168 1.0074 2.1077 0.54434 2.3751-0.46302 0.26755-1.3144-0.13755-1.7847-1.659-0.41229 0.7319-0.41325 0.69511-0.2116 1.1393 0.63059 1.3976 1.7142 1.653 2.4165 1.2476 0.70217-0.40569 1.023-1.4717 0.12795-2.7166-0.28388-0.39667-0.25262-0.37741-1.0925-0.38637zm-0.92079 0.17523c0.28127 0.92597 0.71964 2.1432 1.2363 1.8035 0.55263-0.27756-0.28247-1.2658-0.94365-1.9724-0.0628-0.0671-0.1494-0.0688-0.2135-0.0319-0.0642 0.037-0.10587 0.11289-0.0791 0.2008zm2.2288-4.1273c-0.11772 0.0764-0.22225 0.179-0.33796 0.28152 0.45625 0.65465 1.124 1.6163 0.41762 2.3438-0.72757 0.70633-1.6892 0.0386-2.3439-0.41762-0.10248 0.11571-0.20507 0.22031-0.28141 0.33796-0.29288 0.45184 1.8709 1.7385 3.0425 0.49693 1.2415-1.1716-0.0451-3.3354-0.49692-3.0426zm-0.4808-2.689c7e-4 7.8e-4 1e-3 2e-3 2e-3 2e-3 -1e-3 2.5e-4 -2e-3 5.6e-4 -3e-3 8.8e-4 0.9876 1.0162 1.2588 1.2898 1.9011 1.3485 0.40062 0.0367 0.69123-0.25114 0.79252-0.62847 0.10096-0.37758-7e-3 -0.77209-0.37201-0.94069-0.58557-0.27026-0.95729-0.16887-2.3207 0.21742zm-0.55926-2.8832c-0.14549 0.53499-0.43674 0.91119-0.88808 1.1455 0.45134 0.23431 0.74259 0.61052 0.88808 1.1455 0.0937 0.3447 1.8947 0.22264 1.9222-1.1455-0.0276-1.3682-1.8285-1.4903-1.9222-1.1455zm0.55838-0.59542c1e-3 3.2e-4 2e-3 6.7e-4 3e-3 8.8e-4 -7.1e-4 8.1e-4 -1e-3 2e-3 -2e-3 2e-3 1.3634 0.38625 1.7351 0.48764 2.3207 0.21741 0.36523-0.16863 0.47297-0.5631 0.372-0.94061-0.10128-0.37744-0.3919-0.66523-0.79251-0.62858-0.64227 0.0587-0.91348 0.33232-1.9011 1.3485zm-2.8616-0.10209c-0.0211 0.47572-0.34907 0.74217-0.61199 1.0274 4e-3 1e-3 8e-3 3e-3 0.0124 4e-3 -3e-3 3e-3 -6e-3 6e-3 -9e-3 0.01 0.37031 0.11553 0.7875 0.18228 1.0436 0.5837 0.51005 0.23689 1.6177-0.59323 1.4328-1.2545-0.17053-0.66524-1.5448-0.8303-1.8681-0.3701zm-1.8229-1.2855c-0.25376-0.14841-0.94665 0.43741-1.0947 1.8961 1.1892-0.8575 1.3502-1.7506 1.0947-1.8961zm-0.57383 2.417c1.4586-0.1481 2.0445-0.84102 1.8961-1.0947-0.14552-0.25541-1.0386-0.0945-1.8961 1.0947zm-0.52094 1.9439c0.1481 1.4587 0.84099 2.0445 1.0947 1.8961 0.25548-0.14548 0.0945-1.0386-1.0947-1.8961zm2.417 0.57383c0.14842-0.25372-0.43748-0.94664-1.8961-1.0947 0.8575 1.1893 1.7506 1.3502 1.8961 1.0947zm0.48394-1.8062c2e-3 -0.29401-0.85217-0.60114-2.1894 0 1.3373 0.6011 2.1911 0.29397 2.1894 0zm1.8848 1.4729c0.18489-0.66125-0.92272-1.4914-1.4328-1.2545-0.25615 0.40142-0.67335 0.46817-1.0437 0.58374 3e-3 3e-3 6e-3 6e-3 9e-3 0.01-4e-3 1e-3 -8e-3 3e-3 -0.0124 4e-3 0.26293 0.28522 0.59091 0.55167 0.612 1.0274 0.32322 0.46019 1.6975 0.29513 1.8681-0.3701zm-0.74655 3.2802c0.34724 1.3739 0.44525 1.7464 0.97212 2.1184 0.32861 0.23199 0.72422 0.12802 1.0006-0.1481 0.27619-0.2765 0.38016-0.67204 0.14817-1.0006-0.37204-0.52687-0.74454-0.62488-2.1184-0.97208 2.5e-4 1e-3 3.5e-4 2e-3 7e-4 3e-3 -1e-3 -2.5e-4 -2e-3 -4.9e-4 -3e-3 -7.4e-4zm-0.18584-0.79484c-0.0912 0.34544 1.5295 1.1401 2.2375-0.0309 0.66022-1.1987-0.83841-2.2049-1.0919-1.9532-0.39359 0.39056-0.83382 0.57076-1.3419 0.54804 0.27368 0.42866 0.33789 0.89993 0.19639 1.4361zm-2.3434-0.54759c0.0498 0.56021 1.3225 1.1043 1.8028 0.61352 0.49071-0.48024-0.0534-1.7529-0.61366-1.8028-0.42245 0.21961-0.81717 0.0688-1.1957-0.0163 1e-3 4e-3 2e-3 8e-3 3e-3 0.0127-4e-3 -9.5e-4 -8e-3 -2e-3 -0.0127-3e-3 0.0851 0.37846 0.23594 0.77322 0.0164 1.1957zm-0.0164-5.6256c4e-3 -9.5e-4 9e-3 -2e-3 0.0127-3e-3 -1e-3 4e-3 -2e-3 8e-3 -3e-3 0.0127 0.37854-0.0851 0.77326-0.23598 1.1957-0.0164 0.56028-0.0498 1.1044-1.3225 0.61358-1.8028-0.48023-0.49075-1.7529 0.0534-1.8028 0.61359 0.21957 0.42248 0.0688 0.81724-0.0164 1.1958zm2.3598-1.7434c0.1415 0.53615 0.0773 1.0075-0.19639 1.4361 0.5081-0.0227 0.94834 0.15748 1.3419 0.54804 0.25351 0.25171 1.7521-0.75452 1.0919-1.9532-0.70799-1.1711-2.3286-0.37637-2.2375-0.0309zm0.18828-0.79245c1.3739-0.3472 1.7464-0.4452 2.1184-0.97208 0.23199-0.32861 0.12802-0.72414-0.1481-1.0006-0.27643-0.27619-0.67204-0.38015-1.0006-0.14817-0.52688 0.37201-0.62488 0.74454-0.97212 2.1184 1e-3 -2.4e-4 2e-3 -4.9e-4 3e-3 -7.4e-4 -2.1e-4 1e-3 -3.5e-4 2e-3 -7e-4 3e-3zm5.0267 4.9196c0.94244 0.21936 2.2159 0.44845 2.18-0.16891 0.0359-0.6174-1.2375-0.3883-2.18-0.16895-0.0896 0.0208-0.13441 0.0949-0.13441 0.16895 0 0.074 0.0448 0.14806 0.13441 0.16891zm0.42347 2.565c0.48934-1.6354-1.7067-2.866-1.9516-2.3865-0.0638 0.12506-0.10298 0.26613-0.15194 0.41275 0.72245 0.33884 1.7814 0.83778 1.5336 1.821-0.27693 0.97547-1.4436 0.87803-2.2386 0.8103-0.0309 0.15148-0.0675 0.29326-0.0748 0.43339-0.0276 0.53773 2.4895 0.57001 2.8834-1.0909zm-1.8182 2.3023c0.70661 0.66117 1.6949 1.4963 1.9724 0.94364 0.3398-0.51664-0.8775-0.955-1.8034-1.2363-0.0879-0.0267-0.1638 0.015-0.20084 0.0792-0.037 0.0641-0.0352 0.15064 0.0319 0.21347zm2.3688 1.1725c-0.26734 0.46309-1.2071 0.53809-2.3751-0.54434 9e-3 0.83997-0.0103 0.80864 0.38643 1.0925 1.2448 0.89503 2.3109 0.57421 2.7163-0.12796 0.40545-0.70227 0.15029-1.7859-1.2474-2.4164-0.44419-0.20165-0.40739-0.20066-1.1393 0.21163 1.5214 0.47025 1.9264 1.3215 1.659 1.7846zm-10.923 3.5711c-0.21932 0.94245-0.44842 2.2159 0.16894 2.18 0.6174 0.036 0.38831-1.2375 0.16895-2.18-0.0208-0.0896-0.0949-0.13441-0.16895-0.13441-0.074 0-0.14806 0.0448-0.16894 0.13441zm0.16894-1.9252c1.3682-0.0276 1.4903-1.8286 1.1455-1.9222-0.53498-0.14552-0.91119-0.43677-1.1455-0.88812-0.23431 0.45135-0.61051 0.7426-1.1455 0.88812-0.3447 0.0937-0.22264 1.8946 1.1455 1.9222zm-7.3199-4.0297c-0.0073-0.14013-0.04389-0.28191-0.07479-0.43339-0.79509 0.0677-1.9617 0.16517-2.2387-0.81023-0.24786-0.98329 0.81111-1.4822 1.5336-1.8211-0.04893-0.14662-0.08816-0.28769-0.15194-0.41275-0.24486-0.47946-2.4409 0.75106-1.9516 2.3865 0.39391 1.6609 2.911 1.6287 2.8834 1.0909zm-1.0333 0.99786c-0.03704-0.0642-0.11289-0.1059-0.20084-0.0792-0.92594 0.28127-2.1432 0.71963-1.8034 1.2363 0.2775 0.55267 1.2658-0.28247 1.9723-0.94364 0.06717-0.0628 0.06893-0.14937 0.03189-0.21347zm-2.4007 1.386c-0.26744-0.46309 0.13762-1.3144 1.6589-1.7846-0.73187-0.41229-0.69508-0.41328-1.1392-0.21163-1.3977 0.63059-1.6529 1.7142-1.2474 2.4164 0.40545 0.70217 1.4715 1.023 2.7163 0.12796 0.39677-0.28385 0.37751-0.25252 0.38643-1.0925-1.168 1.0824-2.1077 1.0074-2.375 0.54434zm0.55054-8.9427c-0.48934 1.6355 1.7067 2.866 1.9516 2.3865 0.06378-0.12506 0.10301-0.26613 0.15194-0.41275-0.72245-0.33884-1.7814-0.83777-1.5336-1.821 0.27693-0.9755 1.4436-0.87806 2.2387-0.81033 0.0309-0.15148 0.06749-0.29326 0.07479-0.43338 0.02762-0.53774-2.4895-0.57002-2.8834 1.0909zm1.8182-2.3023c-0.70658-0.66117-1.6948-1.4962-1.9723-0.94364-0.33983 0.51664 0.87746 0.955 1.8034 1.2363 0.08795 0.0267 0.1638-0.015 0.20084-0.0792 0.03704-0.0641 0.03528-0.15057-0.03189-0.21347zm-2.3688-1.1725c0.26734-0.46309 1.2071-0.53806 2.375 0.54434-0.0089-0.83986 0.01034-0.80853-0.38643-1.0925-1.2448-0.89503-2.3109-0.57421-2.7163 0.12796-0.40545 0.70227-0.15025 1.786 1.2474 2.4164 0.44415 0.20165 0.40735 0.20066 1.1392-0.21159-1.5213-0.47029-1.9264-1.3216-1.6589-1.7847zm10.923-3.5711c0.21936-0.94244 0.44845-2.2159-0.16895-2.18-0.61736-0.0359-0.38826 1.2375-0.16894 2.18 0.0209 0.0896 0.095 0.13441 0.16894 0.13441 0.074 0 0.1481-0.0448 0.16895-0.13441zm-0.16895 1.9252c-1.3682 0.0276-1.4902 1.8286-1.1455 1.9223 0.53503 0.14548 0.91123 0.43674 1.1455 0.88808 0.23435-0.45134 0.61056-0.7426 1.1455-0.88808 0.34474-0.0937 0.22268-1.8947-1.1455-1.9223zm7.3199 4.0298c7e-3 0.14012 0.0439 0.2819 0.0748 0.43338 0.7951-0.0677 1.9617-0.16517 2.2387 0.81023 0.24783 0.9833-0.81114 1.4822-1.5336 1.8211 0.049 0.14662 0.0882 0.28769 0.15194 0.41275 0.2449 0.47946 2.4409-0.75103 1.9516-2.3865-0.39395-1.661-2.911-1.6287-2.8834-1.0909zm1.0333-0.99787c0.037 0.0642 0.11292 0.1059 0.20084 0.0792 0.92593-0.28127 2.1432-0.71963 1.8034-1.2363-0.27749-0.55256-1.2658 0.28247-1.9724 0.94364-0.0671 0.0629-0.0689 0.1494-0.0319 0.21347zm2.4007-1.386c0.2674 0.46309-0.13762 1.3144-1.659 1.7847 0.73187 0.41225 0.69507 0.41324 1.1393 0.21159 1.3977-0.63048 1.6528-1.7142 1.2474-2.4164-0.40541-0.70217-1.4715-1.023-2.7163-0.12796-0.39674 0.28396-0.37748 0.25263-0.38644 1.0925 1.168-1.0824 2.1077-1.0074 2.3751-0.54434zm8.2121 9.6775c-0.36237-1.9318-1.0899-3.0217-4.0814-3.2516-0.12884 1.3031-1.1256 2.6714-2.3769 2.7861 1.992 0.59242 2.0861 0.66802 2.2406 0.4705 1.1254-1.4384 3.4232-0.89133 3.5155 0.72552 7e-3 0.11427 0.0319 0.22804 0.0846 0.32957 0.0335 0.0644 0.0764 0.12259 0.1385 0.16517 0.13882 0.0954 0.31725 0.10887 0.48038 0.11829 0.0139 8.1e-4 0.0272 4e-3 0.04 7e-3 0.0757-0.43371 0.0484-0.87182-0.0414-1.3508zm0.4747-3.4687c-1.1e-4 -0.0881-0.048-0.17597-0.14302-0.2365-1.2637-0.80614-1.2916-0.46828-2.6868 0.2365 1.3952 0.70474 1.4231 1.0426 2.6868 0.2365 0.095-0.0605 0.14291-0.14841 0.14302-0.2365zm-0.29006 2.3164 0.23665 1.0716c1.4936 3e-3 3.5671-1.4156 3.778-3.147h-1.398c-0.0423 0.33753-0.20863 0.65627-0.50617 0.96932-0.85104 0.89553-1.4957 0.92104-2.1105 1.106zm2.1622-2.0753h-1.3774c-0.0634 0.15557-0.18785 0.30226-0.37637 0.42192-0.32678 0.20761-0.70298 0.34103-1.0575 0.49879 0.38421 0.60022 0.46352 0.74267 0.54268 0.73187 1.4824-0.28031 2.1259-1.0546 2.2685-1.6526zm-21.53 14.644c-1.3031-0.12876-2.6715-1.1257-2.7861-2.377-0.59242 1.9921-0.66802 2.0863-0.4705 2.2405 1.4384 1.1254 0.89133 3.4234-0.72552 3.5154-0.11426 7e-3 -0.22804 0.0321-0.3296 0.085-0.06442 0.0332-0.12256 0.0762-0.16514 0.13829-0.09536 0.139-0.10887 0.3175-0.11829 0.48048-7.06e-4 0.0138-0.0036 0.0272-0.0072 0.0399 0.43367 0.0759 0.87189 0.0487 1.3508-0.0413 1.9318-0.3623 3.0216-1.0897 3.2515-4.0813zm-0.0239 6.4283v-1.3776c-0.15557-0.0631-0.30229-0.18767-0.42192-0.37606-0.20761-0.32702-0.34103-0.70308-0.49879-1.0576-0.60022 0.38417-0.7426 0.46355-0.73187 0.54257 0.28031 1.4824 1.0546 2.1258 1.6526 2.2687zm-0.96932-0.0519c-0.89553-0.8509-0.92104-1.4958-1.106-2.1107l-1.0716 0.23672c-0.0025 1.4937 1.4156 3.5673 3.147 3.7782v-1.3981c-0.33753-0.0423-0.65627-0.20885-0.96932-0.50624zm1.4276-36.146c1.3031 0.12887 2.6715 1.1256 2.7862 2.3769 0.59238-1.992 0.66802-2.0861 0.4705-2.2406-1.4384-1.1254-0.89133-3.4232 0.72552-3.5155 0.11427-6e-3 0.22804-0.032 0.32957-0.0847 0.0644-0.0335 0.12255-0.0764 0.16517-0.1385 0.0953-0.13882 0.10886-0.31733 0.11828-0.48042 7.1e-4 -0.0139 3e-3 -0.0271 7e-3 -0.04-0.4337-0.0758-0.87192-0.0485-1.3508 0.0414-1.9318 0.36237-3.0217 1.0899-3.2516 4.0814zm0.0239-6.4282v1.3774c0.15558 0.0634 0.3023 0.18785 0.42196 0.37627 0.20768 0.32685 0.34103 0.70309 0.49875 1.0575 0.60026-0.38417 0.7426-0.46348 0.73191-0.54264-0.28031-1.4824-1.0546-2.1259-1.6526-2.2685zm0.96936 0.0517c0.89553 0.85097 0.92104 1.4956 1.106 2.1105l1.0716-0.23665c2e-3 -1.4936-1.4156-3.5671-3.147-3.7781v1.3981c0.33757 0.0422 0.65627 0.20864 0.96936 0.50617zm13.988 38.544c-0.0529 3.1016-2.8804 3.2191 0.61397 5.7788-0.67253-2.7492 0.84639-3.2131-0.61397-5.7788zm-3.1332 7.9421c-0.46955-4.306-1.9849-1.9159-4.6976-3.4212 1.4919 2.5478 2.6532 1.4644 4.6976 3.4212zm-0.51632 2.5418c0.80288-2.2694 1.2712-1.9382-3.255-4.1444 0.0302 1.9216 2.1164 2.4391 3.255 4.1444zm-1.4963 2.763c1.9126-3.8343 1.0244-2.0412-1.9148-5.6709-0.83739 1.7244 0.14647 0.75706 1.3588 3.1694 0.44764 0.89041 0.66128 1.5826 0.55594 2.5015zm-4.6713-4.9322c-0.73067 4.6129-2.3964 3.5041 1.1771 5.8685-0.55055-0.74295-0.71177-1.4496-0.76924-2.4444-0.15614-2.6952 1.1795-2.3495-0.40788-3.4241zm-11.171 3.4241c-0.0575 0.99483-0.21872 1.7014-0.76927 2.4444 3.5736-2.3643 1.9078-1.2555 1.1771-5.8685-1.5874 1.0746-0.25171 0.72884-0.40785 3.4241zm-1.5785-7.2178c-2.7127 1.5053-4.228-0.88477-4.6976 3.4212 2.0443-1.9568 3.2057-0.87347 4.6976-3.4212zm-0.92629 1.8186c-4.5261 2.2063-4.0579 1.875-3.2549 4.1444 1.1385-1.7053 3.2247-2.2228 3.2549-4.1444zm-1.2027 4.4058c1.2124-2.4123 2.1962-1.445 1.3588-3.1694-2.9392 3.6297-3.8274 1.8366-1.9148 5.6709-0.10534-0.91898 0.1083-1.6111 0.55594-2.5015zm-6.3158-4.9664c3.4944-2.5598 0.66693-2.6772 0.61401-5.7788-1.4604 2.5658 0.05853 3.0296-0.61401 5.7788zm0.61401-40.344c0.05292-3.1019 2.8804-3.2191-0.61401-5.7789 0.67254 2.7489-0.84638 3.213 0.61401 5.7789zm3.1332-7.9423c0.46955 4.3062 1.9848 1.9161 4.6976 3.4212-1.4919-2.5477-2.6532-1.4643-4.6976-3.4212zm0.51632-2.5416c-0.80292 2.2695-1.2712 1.938 3.2549 4.1443-0.0302-1.9215-2.1164-2.4391-3.2549-4.1443zm1.4963-2.763c-1.9126 3.8344-1.0244 2.0412 1.9148 5.6708 0.83735-1.7244-0.14647-0.75717-1.3588-3.1694-0.44764-0.89027-0.66128-1.5826-0.55594-2.5013zm4.6713 4.9322c0.73067-4.6129 2.3965-3.5041-1.1771-5.8684 0.55054 0.74298 0.71176 1.4493 0.76927 2.4441 0.15614 2.6952-1.1795 2.3496 0.40785 3.4243zm11.171-3.4243c0.0575-0.9948 0.21869-1.7012 0.76924-2.4441-3.5736 2.3643-1.9078 1.2555-1.1771 5.8684 1.5874-1.0747 0.25174-0.72905 0.40788-3.4243zm1.5785 7.2179c2.7127-1.5052 4.228 0.88494 4.6976-3.4212-2.0444 1.957-3.2057 0.87351-4.6976 3.4212zm0.92625-1.8185c4.5261-2.2063 4.0579-1.8748 3.255-4.1443-1.1386 1.7052-3.2248 2.2228-3.255 4.1443zm1.2027-4.406c-1.2124 2.4123-2.1962 1.4451-1.3588 3.1694 2.9392-3.6296 3.8274-1.8364 1.9148-5.6708 0.10534 0.91878-0.1083 1.6111-0.55594 2.5013zm6.3157 4.9666c-3.4944 2.5598-0.66689 2.677-0.61397 5.7789 1.4604-2.5659-0.0586-3.03 0.61397-5.7789zm9.4738 23.338-0.13758 0.57856c4.1931 0.28885 4.9925 2.6111 7.6913 7.479 0.0868 0.15688 0.23353 0.27298 0.40745 0.31786 0.23848 0.0617 0.47414 0.12954 0.70944 0.20267-4.0809-7.3416-4.3226-8.8382-8.6706-8.5781zm8.243-0.0353c-0.26423 0-0.51928 0.0917-0.72319 0.25975-0.647 0.53509-2.0729 1.7117-2.0916 1.7423l0.79869 1.2809 3.4583-3.2301c0.0176-0.0164 0.0328-0.0342 0.0476-0.0528zm-0.72319-0.74197c0.20391 0.16807 0.45896 0.25975 0.72319 0.25975h1.4898c-0.0148-0.0186-0.03-0.0364-0.0476-0.0528l-3.4583-3.2301-0.79868 1.2809c0.0187 0.0306 1.4446 1.2072 2.0916 1.7423zm-2.3396 0.19424c0.0469 0.0418 0.10654 0.0656 0.16933 0.0654 0.15522-3.8e-4 0.59231 7e-5 1.8538 7e-5 -2.4204-2.1612-1.8761-1.8102-2.8533-0.7227 0.38312 0.30537 0.6597 0.50483 0.83009 0.65719zm-0.83009 1.2704c0.9772 1.0875 0.43286 1.4385 2.8533-0.7227-1.2615 0-1.6986 4.6e-4 -1.8538 7e-5 -0.0628-7e-5 -0.12241 0.0237-0.16933 0.0655-0.17039 0.15233-0.44697 0.35179-0.83009 0.65716zm0.58843-0.96379c-1.2118-0.86508-0.5588-0.87764-2.4123 0 1.8535 0.8776 1.2005 0.86504 2.4123 0zm7.2669 0.24109h-1.481c-0.21731 0-0.4258 0.0807-0.58667 0.22592-4.0682 3.6764-3.8795 3.179-3.0342 4.7175 1.0372-0.94189 4.3025-4.038 5.1019-4.9434zm0.59761-0.52931c0.10619 0.10421 0.15946 0.19618 0.15946 0.28822 0 0.092-0.0533 0.18397-0.15946 0.28818-6.2078 6.0784-5.6497 4.9487-5.1446 5.8513 0.42827 0.7657 1.0506 1.881 1.5847 2.741 0.11253 0.18125 0.17462 0.2812 0.17462 0.37242 0 0.0158-2e-3 0.0307-5e-3 0.0448-4e-3 0.0139-0.0102 0.0276-0.0183 0.0412-0.0452 0.0791-0.14922 0.13455-0.33725 0.23527-0.89253 0.47777-1.989 1.1324-2.7428 1.5813-0.88829 0.52952-0.80715-0.7282 1.5293 7.6398 0.0402 0.14323 0.0402 0.24941-6e-3 0.32914-0.0459 0.0797-0.13793 0.133-0.28292 0.17004-8.4145 2.1601-7.366 1.4608-7.3801 2.4952-0.012 0.877-0.0307 2.1541 2e-3 3.1658 7e-3 0.21343 0.0106 0.33091-0.0349 0.40993-8e-3 0.0138-0.0169 0.0258-0.0268 0.0363-0.0102 0.01-0.0226 0.0187-0.0363 0.0268-0.079 0.0455-0.19649 0.0416-0.40957 0.0349-1.0118-0.0324-2.2888-0.0141-3.1662-2e-3 -1.0341 0.0145-0.33489-1.0343-2.4952 7.3808-0.037 0.14429-0.09 0.23636-0.16975 0.28257-0.0797 0.0459-0.18602 0.0459-0.32943 6e-3 -8.3678-2.3368-7.1102-2.4179-7.6395-1.5293-0.44909 0.75354-1.1037 1.8503-1.5814 2.7428-0.10076 0.18803-0.15621 0.29175-0.2352 0.33726-0.0138 8e-3 -0.0275 0.0141-0.0413 0.0183-0.0141 3e-3 -0.0289 5e-3 -0.0448 5e-3 -0.0913 0-0.19117-0.0617-0.37243-0.17428-0.86-0.5341-1.9753-1.1568-2.741-1.5847-0.90258-0.50483 0.22709-1.0633-5.8512 5.1442-0.10429 0.10654-0.19625 0.15981-0.28829 0.15981-0.092 0-0.18398-0.0533-0.28826-0.15981-6.0784-6.2075-4.9486-5.649-5.8513-5.1442-0.7656 0.42792-1.8809 1.0506-2.7409 1.5847-0.18126 0.11254-0.28113 0.17428-0.37243 0.17428-0.01588 0-0.03069-1e-3 -0.04477-5e-3 -0.01386-4e-3 -0.02755-0.0102-0.04131-0.0183-0.07899-0.0455-0.13448-0.14923-0.2352-0.33726-0.47777-0.89253-1.1323-1.9893-1.5814-2.7428-0.52927-0.88865 0.72834-0.80751-7.6395 1.5293-0.1434 0.0402-0.2497 0.0402-0.32942-6e-3 -0.07969-0.0462-0.13268-0.13828-0.16972-0.28257-2.1603-8.4152-1.4611-7.3664-2.4952-7.3808-0.87725-0.012-2.1543-0.0303-3.1661 2e-3 -0.21322 7e-3 -0.33073 0.0106-0.40972-0.0349-0.01376-8e-3 -0.02582-0.0169-0.03641-0.0268-0.0099-0.0106-0.01866-0.0226-0.02663-0.0363-0.04565-0.079-0.04188-0.1965-0.0351-0.40993 0.0326-1.0118 0.01401-2.2888 2e-3 -3.1658-0.01425-1.0344 1.0342-0.33514-7.3808-2.4952-0.14429-0.037-0.2364-0.0903-0.2824-0.17004-0.04604-0.0797-0.0459-0.18591-0.0059-0.32914 2.3367-8.368 2.418-7.1102 1.5295-7.6398-0.75371-0.44894-1.8504-1.1035-2.7429-1.5813-0.1881-0.10072-0.29175-0.15621-0.33733-0.23527-8e-3 -0.0137-0.01401-0.0274-0.0182-0.0412-0.0033-0.0141-0.0049-0.0289-0.0049-0.0448 0-0.0912 0.06198-0.19117 0.17448-0.37242 0.53414-0.86 1.1566-1.9753 1.5848-2.741 0.50472-0.90258 1.0631 0.22708-5.1444-5.8513-0.10647-0.10421-0.15967-0.19614-0.15967-0.28818 0-0.092 0.0532-0.18401 0.15967-0.28822 6.2075-6.0784 5.6491-4.9487 5.1444-5.8513-0.42824-0.7657-1.0507-1.881-1.5848-2.741-0.1125-0.18125-0.17448-0.2812-0.17448-0.37242 0-0.0158 0.0016-0.0307 0.0049-0.0448 0.0042-0.0138 0.01023-0.0275 0.0182-0.0412 0.04558-0.0791 0.14922-0.13455 0.33733-0.23527 0.89253-0.47777 1.9892-1.1323 2.7429-1.5813 0.88844-0.52937 0.80719 0.72824-1.5295-7.6396-0.04004-0.14344-0.04018-0.24974 0.0059-0.32943 0.046-0.0797 0.13811-0.13271 0.2824-0.16975 8.415-2.1602 7.3665-1.4611 7.3808-2.4952 0.01199-0.87725 0.03059-2.1543-2e-3 -3.1662-0.0068-0.21322-0.01055-0.33069 0.0351-0.40978 8e-3 -0.0137 0.01676-0.0258 0.02663-0.0363 0.01058-0.01 0.02265-0.0187 0.03641-0.0267 0.07899-0.0456 0.1965-0.0419 0.40972-0.0351 1.0119 0.0326 2.2889 0.014 3.1661 2e-3 1.0341-0.0142 0.33489 1.0344 2.4952-7.3812 0.03704-0.14415 0.09003-0.23594 0.16972-0.28184 0.07973-0.0459 0.18602-0.0459 0.32942-6e-3 8.3679 2.3364 7.1102 2.4176 7.6395 1.5292 0.44909-0.75371 1.1037-1.8504 1.5814-2.7426 0.10072-0.18842 0.15621-0.29231 0.2352-0.33739 0.01376-8e-3 0.02745-0.0145 0.04131-0.0186 0.01408-3e-3 0.02889-5e-3 0.04477-5e-3 0.0913 0 0.19117 0.062 0.37243 0.17466 0.86 0.53397 1.9753 1.1564 2.7409 1.5848 0.90269 0.50489-0.22708 1.0631 5.8513-5.1447 0.10428-0.1063 0.19622-0.15942 0.28826-0.15942 0.092 0 0.184 0.0531 0.28829 0.15942 6.0783 6.2078 4.9486 5.6496 5.8512 5.1447 0.76571-0.42838 1.881-1.0508 2.741-1.5848 0.18126-0.11268 0.28109-0.17466 0.37243-0.17466 0.0158 0 0.0307 2e-3 0.0448 5e-3 0.0138 4e-3 0.0275 0.0104 0.0413 0.0186 0.079 0.0451 0.13444 0.14897 0.2352 0.33739 0.47776 0.89221 1.1323 1.9889 1.5814 2.7426 0.52927 0.88843-0.72835 0.80726 7.6395-1.5292 0.14341-0.0402 0.2497-0.0402 0.32943 6e-3 0.0797 0.0459 0.13271 0.13769 0.16975 0.28184 2.1603 8.4155 1.4611 7.367 2.4952 7.3812 0.87736 0.012 2.1544 0.0306 3.1662-2e-3 0.21308-7e-3 0.33055-0.0105 0.40957 0.0351 0.0138 8e-3 0.0261 0.0168 0.0363 0.0267 0.01 0.0105 0.0187 0.0226 0.0268 0.0363 0.0455 0.0791 0.042 0.19656 0.0349 0.40978-0.0325 1.0119-0.0138 2.2889-2e-3 3.1662 0.0141 1.0341-1.0343 0.33496 7.3801 2.4952 0.14499 0.037 0.23706 0.09 0.28292 0.16975 0.0459 0.0797 0.0459 0.18599 6e-3 0.32943-2.3364 8.3678-2.4176 7.1102-1.5293 7.6396 0.75389 0.44899 1.8503 1.1036 2.7428 1.5813 0.18803 0.10072 0.2921 0.15621 0.33725 0.23527 8e-3 0.0137 0.0145 0.0274 0.0183 0.0412 3e-3 0.0141 5e-3 0.0289 5e-3 0.0448 0 0.0912-0.0621 0.19117-0.17462 0.37242-0.53411 0.86001-1.1564 1.9753-1.5847 2.741-0.50518 0.90258-1.0633-0.22708 5.1446 5.8513z" fill="#71b371"/>
 </g>
</svg>
